<mxfile host="app.diagrams.net" agent="Mozilla/5.0 (Windows NT 10.0; Win64; x64; rv:133.0) Gecko/20100101 Firefox/133.0" version="24.9.2">
  <diagram id="l8hXMBHkgcEJcSW0mbfh" name="Page-1">
    <mxGraphModel dx="1760" dy="868" grid="0" gridSize="10" guides="1" tooltips="1" connect="1" arrows="1" fold="1" page="1" pageScale="1" pageWidth="1169" pageHeight="827" math="0" shadow="0">
      <root>
        <mxCell id="0" />
        <mxCell id="1" parent="0" />
        <mxCell id="8--HhbSZYtI3ddgJnD71-11" value="Internet" style="shape=image;verticalLabelPosition=bottom;verticalAlign=top;imageAspect=0;aspect=fixed;image=data:image/svg+xml,PHN2ZyB4bWxucz0iaHR0cDovL3d3dy53My5vcmcvMjAwMC9zdmciIHZlcnNpb249IjEiIHZpZXdCb3g9IjAgMCA0OCA0OCIgZW5hYmxlLWJhY2tncm91bmQ9Im5ldyAwIDAgNDggNDgiPiYjeGE7ICAgIDxwYXRoIGZpbGw9IiM3Q0IzNDIiIGQ9Ik0yNCw0QzEzLDQsNCwxMyw0LDI0czksMjAsMjAsMjBzMjAtOSwyMC0yMFMzNSw0LDI0LDR6Ii8+JiN4YTsgICAgPHBhdGggZmlsbD0iIzAyNzdCRCIgZD0iTTQ1LDI0YzAsMTEuNy05LjUsMjEtMjEsMjFTMywzNS43LDMsMjRTMTIuMywzLDI0LDNTNDUsMTIuMyw0NSwyNHogTTIzLjgsMzMuN2MwLTAuNC0wLjItMC42LTAuNi0wLjggYy0xLjMtMC40LTIuNS0wLjQtMy42LTEuNWMtMC4yLTAuNC0wLjItMC44LTAuNC0xLjNjLTAuNC0wLjQtMS41LTAuNi0yLjEtMC44Yy0wLjgsMC0xLjcsMC0yLjcsMGMtMC40LDAtMS4xLDAtMS41LDAgYy0wLjYtMC4yLTEuMS0xLjEtMS41LTEuN2MwLTAuMiwwLTAuNi0wLjQtMC42Yy0wLjQtMC4yLTAuOCwwLjItMS4zLDBjLTAuMi0wLjItMC4yLTAuNC0wLjItMC42YzAtMC42LDAuNC0xLjMsMC44LTEuNyBjMC42LTAuNCwxLjMsMC4yLDEuOSwwLjJjMC4yLDAsMC4yLDAsMC40LDAuMmMwLjYsMC4yLDAuOCwxLDAuOCwxLjdjMCwwLjIsMCwwLjQsMCwwLjRjMCwwLjIsMC4yLDAuMiwwLjQsMC4yIGMwLjItMS4xLDAuMi0yLjEsMC40LTMuMmMwLTEuMywxLjMtMi41LDIuMy0yLjljMC40LTAuMiwwLjYsMC4yLDEuMSwwYzEuMy0wLjQsNC40LTEuNywzLjgtMy40Yy0wLjQtMS41LTEuNy0yLjktMy40LTIuNyBjLTAuNCwwLjItMC42LDAuNC0xLDAuNmMtMC42LDAuNC0xLjksMS43LTIuNSwxLjdjLTEuMS0wLjItMS4xLTEuNy0wLjgtMi4zYzAuMi0wLjgsMi4xLTMuNiwzLjQtMy4xYzAuMiwwLjIsMC42LDAuNiwwLjgsMC44IGMwLjQsMC4yLDEuMSwwLjIsMS43LDAuMmMwLjIsMCwwLjQsMCwwLjYtMC4yYzAuMi0wLjIsMC4yLTAuMiwwLjItMC40YzAtMC42LTAuNi0xLjMtMS0xLjdjLTAuNC0wLjQtMS4xLTAuOC0xLjctMS4xIGMtMi4xLTAuNi01LjUsMC4yLTcuMSwxLjdzLTIuOSw0LTMuOCw2LjFjLTAuNCwxLjMtMC44LDIuOS0xLDQuNGMtMC4yLDEtMC40LDEuOSwwLjIsMi45YzAuNiwxLjMsMS45LDIuNSwzLjIsMy40IGMwLjgsMC42LDIuNSwwLjYsMy40LDEuN2MwLjYsMC44LDAuNCwxLjksMC40LDIuOWMwLDEuMywwLjgsMi4zLDEuMywzLjRjMC4yLDAuNiwwLjQsMS41LDAuNiwyLjFjMCwwLjIsMC4yLDEuNSwwLjIsMS43IGMxLjMsMC42LDIuMywxLjMsMy44LDEuN2MwLjIsMCwxLTEuMywxLTEuNWMwLjYtMC42LDEuMS0xLjUsMS43LTEuOWMwLjQtMC4yLDAuOC0wLjQsMS4zLTAuOGMwLjQtMC40LDAuNi0xLjMsMC44LTEuOSBDMjMuOCwzNS4xLDI0LDM0LjMsMjMuOCwzMy43eiBNMjQuMiwxNC4zYzAuMiwwLDAuNC0wLjIsMC44LTAuNGMwLjYtMC40LDEuMy0xLjEsMS45LTEuNWMwLjYtMC40LDEuMy0xLjEsMS43LTEuNSBjMC42LTAuNCwxLjEtMS4zLDEuMy0xLjljMC4yLTAuNCwwLjgtMS4zLDAuNi0xLjljLTAuMi0wLjQtMS4zLTAuNi0xLjctMC44Yy0xLjctMC40LTMuMS0wLjYtNC44LTAuNmMtMC42LDAtMS41LDAuMi0xLjcsMC44IGMtMC4yLDEuMSwwLjYsMC44LDEuNSwxLjFjMCwwLDAuMiwxLjcsMC4yLDEuOWMwLjIsMS0wLjQsMS43LTAuNCwyLjdjMCwwLjYsMCwxLjcsMC40LDIuMUwyNC4yLDE0LjN6IE00MS44LDI5IGMwLjItMC40LDAuMi0xLjEsMC40LTEuNWMwLjItMSwwLjItMi4xLDAuMi0zLjFjMC0yLjEtMC4yLTQuMi0wLjgtNi4xYy0wLjQtMC42LTAuNi0xLjMtMC44LTEuOWMtMC40LTEuMS0xLTIuMS0xLjktMi45IGMtMC44LTEuMS0xLjktNC0zLjgtMy4xYy0wLjYsMC4yLTEsMS0xLjUsMS41Yy0wLjQsMC42LTAuOCwxLjMtMS4zLDEuOWMtMC4yLDAuMi0wLjQsMC42LTAuMiwwLjhjMCwwLjIsMC4yLDAuMiwwLjQsMC4yIGMwLjQsMC4yLDAuNiwwLjIsMSwwLjRjMC4yLDAsMC40LDAuMiwwLjIsMC40YzAsMCwwLDAuMi0wLjIsMC4yYy0xLDEuMS0yLjEsMS45LTMuMSwyLjljLTAuMiwwLjItMC40LDAuNi0wLjQsMC44IGMwLDAuMiwwLjIsMC4yLDAuMiwwLjRjMCwwLjItMC4yLDAuMi0wLjQsMC40Yy0wLjQsMC4yLTAuOCwwLjQtMS4xLDAuNmMtMC4yLDAuNCwwLDEuMS0wLjIsMS41Yy0wLjIsMS4xLTAuOCwxLjktMS4zLDIuOSBjLTAuNCwwLjYtMC42LDEuMy0xLDEuOWMwLDAuOC0wLjIsMS41LDAuMiwyLjFjMSwxLjUsMi45LDAuNiw0LjQsMS4zYzAuNCwwLjIsMC44LDAuMiwxLjEsMC42YzAuNiwwLjYsMC42LDEuNywwLjgsMi4zIGMwLjIsMC44LDAuNCwxLjcsMC44LDIuNWMwLjIsMSwwLjYsMi4xLDAuOCwyLjljMS45LTEuNSwzLjYtMy4xLDQuOC01LjJDNDAuNiwzMi40LDQxLjIsMzAuNyw0MS44LDI5eiIvPiYjeGE7PC9zdmc+;labelBackgroundColor=#000000;fontSize=23;fontFamily=Delius;fontSource=https%3A%2F%2Ffonts.googleapis.com%2Fcss%3Ffamily%3DDelius;fontStyle=1;align=center;whiteSpace=wrap;horizontal=1;movable=1;resizable=1;rotatable=1;deletable=1;editable=1;locked=0;connectable=1;fontColor=#FFFFFF;" parent="1" vertex="1">
          <mxGeometry x="1060" y="30" width="90" height="90" as="geometry" />
        </mxCell>
        <mxCell id="8kvuc66AlGBP-AWIMMIC-6" value="" style="rounded=1;whiteSpace=wrap;html=1;movable=1;resizable=1;rotatable=1;deletable=1;editable=1;locked=0;connectable=1;fillColor=#f8cecc;strokeColor=#b85450;" vertex="1" parent="1">
          <mxGeometry x="540" width="480" height="400" as="geometry" />
        </mxCell>
        <mxCell id="8kvuc66AlGBP-AWIMMIC-7" value="" style="rounded=1;whiteSpace=wrap;html=1;movable=1;resizable=1;rotatable=1;deletable=1;editable=1;locked=0;connectable=1;fillColor=#dae8fc;strokeColor=#6c8ebf;" vertex="1" parent="1">
          <mxGeometry x="20" width="480" height="400" as="geometry" />
        </mxCell>
        <mxCell id="8kvuc66AlGBP-AWIMMIC-8" value="" style="rounded=1;whiteSpace=wrap;html=1;movable=1;resizable=1;rotatable=1;deletable=1;editable=1;locked=0;connectable=1;fillColor=#d5e8d4;strokeColor=#82b366;" vertex="1" parent="1">
          <mxGeometry x="550" y="427" width="480" height="400" as="geometry" />
        </mxCell>
        <mxCell id="8kvuc66AlGBP-AWIMMIC-9" value="" style="rounded=1;whiteSpace=wrap;html=1;movable=1;resizable=1;rotatable=1;deletable=1;editable=1;locked=0;connectable=1;fillColor=#e1d5e7;strokeColor=#9673a6;" vertex="1" parent="1">
          <mxGeometry x="30" y="427" width="480" height="400" as="geometry" />
        </mxCell>
        <mxCell id="8kvuc66AlGBP-AWIMMIC-15" value="&lt;div align=&quot;left&quot;&gt;&lt;font data-font-src=&quot;https://fonts.googleapis.com/css?family=Delius&quot; style=&quot;font-size: 24px;&quot;&gt;IT Dept.&lt;/font&gt;&lt;br&gt;&lt;/div&gt;" style="text;html=1;align=left;verticalAlign=middle;whiteSpace=wrap;rounded=0;fontStyle=1;movable=0;resizable=0;rotatable=0;deletable=0;editable=0;locked=1;connectable=0;" vertex="1" parent="1">
          <mxGeometry x="740" y="360" width="100" height="30" as="geometry" />
        </mxCell>
        <mxCell id="8kvuc66AlGBP-AWIMMIC-16" value="&lt;font style=&quot;font-size: 24px;&quot;&gt;Accounts Dept.&lt;br&gt;&lt;/font&gt;" style="text;html=1;align=left;verticalAlign=middle;whiteSpace=wrap;rounded=0;fontStyle=1;fontFamily=Delius;fontSource=https%3A%2F%2Ffonts.googleapis.com%2Fcss%3Ffamily%3DDelius;movable=0;resizable=0;rotatable=0;deletable=0;editable=0;locked=1;connectable=0;" vertex="1" parent="1">
          <mxGeometry x="175" y="360" width="185" height="30" as="geometry" />
        </mxCell>
        <mxCell id="8kvuc66AlGBP-AWIMMIC-17" value="&lt;font style=&quot;font-size: 24px;&quot;&gt;Software Dept.&lt;br&gt;&lt;/font&gt;" style="text;html=1;align=left;verticalAlign=middle;whiteSpace=wrap;rounded=0;fontFamily=Delius;fontSource=https%3A%2F%2Ffonts.googleapis.com%2Fcss%3Ffamily%3DDelius;fontStyle=1;movable=0;resizable=0;rotatable=0;deletable=0;editable=0;locked=1;connectable=0;" vertex="1" parent="1">
          <mxGeometry x="177" y="787" width="180" height="30" as="geometry" />
        </mxCell>
        <mxCell id="8kvuc66AlGBP-AWIMMIC-24" value="&lt;font data-font-src=&quot;https://fonts.googleapis.com/css?family=Delius&quot; style=&quot;font-size: 24px;&quot;&gt;Meeting Room&lt;/font&gt;" style="text;html=1;align=center;verticalAlign=middle;whiteSpace=wrap;rounded=0;fontFamily=Delius;fontSource=https%3A%2F%2Ffonts.googleapis.com%2Fcss%3Ffamily%3DDelius;fontStyle=1;movable=0;resizable=0;rotatable=0;deletable=0;editable=0;locked=1;connectable=0;" vertex="1" parent="1">
          <mxGeometry x="697" y="787" width="180" height="30" as="geometry" />
        </mxCell>
        <mxCell id="8kvuc66AlGBP-AWIMMIC-92" value="" style="group;movable=0;resizable=0;rotatable=0;deletable=0;editable=0;locked=1;connectable=0;" vertex="1" connectable="0" parent="1">
          <mxGeometry x="650" y="560" width="290" height="120" as="geometry" />
        </mxCell>
        <mxCell id="8kvuc66AlGBP-AWIMMIC-81" value="" style="verticalLabelPosition=bottom;html=1;verticalAlign=top;align=center;shape=mxgraph.floorplan.office_chair;shadow=0;movable=0;resizable=0;rotatable=0;deletable=0;editable=0;locked=1;connectable=0;" vertex="1" parent="8kvuc66AlGBP-AWIMMIC-92">
          <mxGeometry x="45.3125" width="36.25" height="36.857142857142854" as="geometry" />
        </mxCell>
        <mxCell id="8kvuc66AlGBP-AWIMMIC-82" value="" style="verticalLabelPosition=bottom;html=1;verticalAlign=top;align=center;shape=mxgraph.floorplan.office_chair;shadow=0;direction=west;movable=0;resizable=0;rotatable=0;deletable=0;editable=0;locked=1;connectable=0;" vertex="1" parent="8kvuc66AlGBP-AWIMMIC-92">
          <mxGeometry x="45.3125" y="83.14285714285714" width="36.25" height="36.857142857142854" as="geometry" />
        </mxCell>
        <mxCell id="8kvuc66AlGBP-AWIMMIC-83" value="" style="verticalLabelPosition=bottom;html=1;verticalAlign=top;align=center;shape=mxgraph.floorplan.office_chair;shadow=0;direction=north;movable=0;resizable=0;rotatable=0;deletable=0;editable=0;locked=1;connectable=0;" vertex="1" parent="8kvuc66AlGBP-AWIMMIC-92">
          <mxGeometry y="42.857142857142854" width="38.96875" height="34.285714285714285" as="geometry" />
        </mxCell>
        <mxCell id="8kvuc66AlGBP-AWIMMIC-84" value="" style="verticalLabelPosition=bottom;html=1;verticalAlign=top;align=center;shape=mxgraph.floorplan.office_chair;shadow=0;direction=south;movable=0;resizable=0;rotatable=0;deletable=0;editable=0;locked=1;connectable=0;" vertex="1" parent="8kvuc66AlGBP-AWIMMIC-92">
          <mxGeometry x="251.03125" y="42.857142857142854" width="38.96875" height="34.285714285714285" as="geometry" />
        </mxCell>
        <mxCell id="8kvuc66AlGBP-AWIMMIC-85" value="" style="verticalLabelPosition=bottom;html=1;verticalAlign=top;align=center;shape=mxgraph.floorplan.office_chair;shadow=0;movable=0;resizable=0;rotatable=0;deletable=0;editable=0;locked=1;connectable=0;" vertex="1" parent="8kvuc66AlGBP-AWIMMIC-92">
          <mxGeometry x="99.6875" width="36.25" height="36.857142857142854" as="geometry" />
        </mxCell>
        <mxCell id="8kvuc66AlGBP-AWIMMIC-86" value="" style="verticalLabelPosition=bottom;html=1;verticalAlign=top;align=center;shape=mxgraph.floorplan.office_chair;shadow=0;direction=west;movable=0;resizable=0;rotatable=0;deletable=0;editable=0;locked=1;connectable=0;" vertex="1" parent="8kvuc66AlGBP-AWIMMIC-92">
          <mxGeometry x="99.6875" y="83.14285714285714" width="36.25" height="36.857142857142854" as="geometry" />
        </mxCell>
        <mxCell id="8kvuc66AlGBP-AWIMMIC-87" value="" style="verticalLabelPosition=bottom;html=1;verticalAlign=top;align=center;shape=mxgraph.floorplan.office_chair;shadow=0;movable=0;resizable=0;rotatable=0;deletable=0;editable=0;locked=1;connectable=0;" vertex="1" parent="8kvuc66AlGBP-AWIMMIC-92">
          <mxGeometry x="154.0625" width="36.25" height="36.857142857142854" as="geometry" />
        </mxCell>
        <mxCell id="8kvuc66AlGBP-AWIMMIC-88" value="" style="verticalLabelPosition=bottom;html=1;verticalAlign=top;align=center;shape=mxgraph.floorplan.office_chair;shadow=0;direction=west;movable=0;resizable=0;rotatable=0;deletable=0;editable=0;locked=1;connectable=0;" vertex="1" parent="8kvuc66AlGBP-AWIMMIC-92">
          <mxGeometry x="154.0625" y="83.14285714285714" width="36.25" height="36.857142857142854" as="geometry" />
        </mxCell>
        <mxCell id="8kvuc66AlGBP-AWIMMIC-89" value="" style="verticalLabelPosition=bottom;html=1;verticalAlign=top;align=center;shape=mxgraph.floorplan.office_chair;shadow=0;movable=0;resizable=0;rotatable=0;deletable=0;editable=0;locked=1;connectable=0;" vertex="1" parent="8kvuc66AlGBP-AWIMMIC-92">
          <mxGeometry x="208.4375" width="36.25" height="36.857142857142854" as="geometry" />
        </mxCell>
        <mxCell id="8kvuc66AlGBP-AWIMMIC-90" value="" style="verticalLabelPosition=bottom;html=1;verticalAlign=top;align=center;shape=mxgraph.floorplan.office_chair;shadow=0;direction=west;movable=0;resizable=0;rotatable=0;deletable=0;editable=0;locked=1;connectable=0;" vertex="1" parent="8kvuc66AlGBP-AWIMMIC-92">
          <mxGeometry x="208.4375" y="83.14285714285714" width="36.25" height="36.857142857142854" as="geometry" />
        </mxCell>
        <mxCell id="8kvuc66AlGBP-AWIMMIC-91" value="" style="shape=ellipse;shadow=0;html=1;movable=0;resizable=0;rotatable=0;deletable=0;editable=0;locked=1;connectable=0;" vertex="1" parent="8kvuc66AlGBP-AWIMMIC-92">
          <mxGeometry x="18.125" y="17.142857142857142" width="253.75" height="85.71428571428571" as="geometry" />
        </mxCell>
        <mxCell id="8kvuc66AlGBP-AWIMMIC-94" value="" style="verticalLabelPosition=bottom;html=1;verticalAlign=top;align=center;shape=mxgraph.floorplan.flat_tv;direction=north;movable=1;resizable=1;rotatable=1;deletable=1;editable=1;locked=0;connectable=1;" vertex="1" parent="1">
          <mxGeometry x="560" y="525" width="10" height="190" as="geometry" />
        </mxCell>
        <mxCell id="8kvuc66AlGBP-AWIMMIC-99" value="" style="group;movable=0;resizable=0;rotatable=0;deletable=0;editable=0;locked=1;connectable=0;" vertex="1" connectable="0" parent="1">
          <mxGeometry x="150" y="460" width="330" height="60" as="geometry" />
        </mxCell>
        <mxCell id="8kvuc66AlGBP-AWIMMIC-95" value="" style="verticalLabelPosition=bottom;html=1;verticalAlign=top;align=center;shape=mxgraph.floorplan.table;movable=0;resizable=0;rotatable=0;deletable=0;editable=0;locked=1;connectable=0;" vertex="1" parent="8kvuc66AlGBP-AWIMMIC-99">
          <mxGeometry width="110" height="60" as="geometry" />
        </mxCell>
        <mxCell id="8kvuc66AlGBP-AWIMMIC-96" value="" style="verticalLabelPosition=bottom;html=1;verticalAlign=top;align=center;shape=mxgraph.floorplan.table;movable=0;resizable=0;rotatable=0;deletable=0;editable=0;locked=1;connectable=0;" vertex="1" parent="8kvuc66AlGBP-AWIMMIC-99">
          <mxGeometry x="110" width="110" height="60" as="geometry" />
        </mxCell>
        <mxCell id="8kvuc66AlGBP-AWIMMIC-97" value="" style="verticalLabelPosition=bottom;html=1;verticalAlign=top;align=center;shape=mxgraph.floorplan.table;movable=0;resizable=0;rotatable=0;deletable=0;editable=0;locked=1;connectable=0;" vertex="1" parent="8kvuc66AlGBP-AWIMMIC-99">
          <mxGeometry x="220" width="110" height="60" as="geometry" />
        </mxCell>
        <mxCell id="8kvuc66AlGBP-AWIMMIC-106" value="" style="verticalLabelPosition=bottom;html=1;verticalAlign=top;align=center;shape=mxgraph.floorplan.desk_corner;movable=0;resizable=0;rotatable=0;deletable=0;editable=0;locked=1;connectable=0;" vertex="1" parent="1">
          <mxGeometry x="40" y="460" width="110" height="100" as="geometry" />
        </mxCell>
        <mxCell id="8kvuc66AlGBP-AWIMMIC-107" value="" style="group;movable=0;resizable=0;rotatable=0;deletable=0;editable=0;locked=1;connectable=0;" vertex="1" connectable="0" parent="1">
          <mxGeometry x="40" y="560" width="60" height="210" as="geometry" />
        </mxCell>
        <mxCell id="8kvuc66AlGBP-AWIMMIC-101" value="" style="verticalLabelPosition=bottom;html=1;verticalAlign=top;align=center;shape=mxgraph.floorplan.table;direction=south;movable=0;resizable=0;rotatable=0;deletable=0;editable=0;locked=1;connectable=0;" vertex="1" parent="8kvuc66AlGBP-AWIMMIC-107">
          <mxGeometry width="60" height="110" as="geometry" />
        </mxCell>
        <mxCell id="8kvuc66AlGBP-AWIMMIC-105" value="" style="verticalLabelPosition=bottom;html=1;verticalAlign=top;align=center;shape=mxgraph.floorplan.table;direction=south;movable=0;resizable=0;rotatable=0;deletable=0;editable=0;locked=1;connectable=0;" vertex="1" parent="8kvuc66AlGBP-AWIMMIC-107">
          <mxGeometry y="110" width="60" height="100" as="geometry" />
        </mxCell>
        <mxCell id="8kvuc66AlGBP-AWIMMIC-108" value="" style="group;movable=0;resizable=0;rotatable=0;deletable=0;editable=0;locked=1;connectable=0;" vertex="1" connectable="0" parent="1">
          <mxGeometry x="560" y="130" width="60" height="210" as="geometry" />
        </mxCell>
        <mxCell id="8kvuc66AlGBP-AWIMMIC-109" value="" style="verticalLabelPosition=bottom;html=1;verticalAlign=top;align=center;shape=mxgraph.floorplan.table;direction=south;movable=0;resizable=0;rotatable=0;deletable=0;editable=0;locked=1;connectable=0;" vertex="1" parent="8kvuc66AlGBP-AWIMMIC-108">
          <mxGeometry width="60" height="110" as="geometry" />
        </mxCell>
        <mxCell id="8kvuc66AlGBP-AWIMMIC-110" value="" style="verticalLabelPosition=bottom;html=1;verticalAlign=top;align=center;shape=mxgraph.floorplan.table;direction=south;movable=0;resizable=0;rotatable=0;deletable=0;editable=0;locked=1;connectable=0;" vertex="1" parent="8kvuc66AlGBP-AWIMMIC-108">
          <mxGeometry y="110" width="60" height="100" as="geometry" />
        </mxCell>
        <mxCell id="8kvuc66AlGBP-AWIMMIC-111" value="" style="group;movable=1;resizable=1;rotatable=1;deletable=1;editable=1;locked=0;connectable=1;fontFamily=Delius;fontSource=https%3A%2F%2Ffonts.googleapis.com%2Fcss%3Ffamily%3DDelius;" vertex="1" connectable="0" parent="1">
          <mxGeometry x="90" y="180" width="330" height="60" as="geometry" />
        </mxCell>
        <mxCell id="8kvuc66AlGBP-AWIMMIC-112" value="" style="verticalLabelPosition=bottom;html=1;verticalAlign=top;align=center;shape=mxgraph.floorplan.table;movable=1;resizable=1;rotatable=1;deletable=1;editable=1;locked=0;connectable=1;fontFamily=Delius;fontSource=https%3A%2F%2Ffonts.googleapis.com%2Fcss%3Ffamily%3DDelius;" vertex="1" parent="8kvuc66AlGBP-AWIMMIC-111">
          <mxGeometry width="110" height="60" as="geometry" />
        </mxCell>
        <mxCell id="8kvuc66AlGBP-AWIMMIC-113" value="" style="verticalLabelPosition=bottom;html=1;verticalAlign=top;align=center;shape=mxgraph.floorplan.table;movable=1;resizable=1;rotatable=1;deletable=1;editable=1;locked=0;connectable=1;fontFamily=Delius;fontSource=https%3A%2F%2Ffonts.googleapis.com%2Fcss%3Ffamily%3DDelius;" vertex="1" parent="8kvuc66AlGBP-AWIMMIC-111">
          <mxGeometry x="110" width="110" height="60" as="geometry" />
        </mxCell>
        <mxCell id="8kvuc66AlGBP-AWIMMIC-114" value="" style="verticalLabelPosition=bottom;html=1;verticalAlign=top;align=center;shape=mxgraph.floorplan.table;movable=1;resizable=1;rotatable=1;deletable=1;editable=1;locked=0;connectable=1;fontFamily=Delius;fontSource=https%3A%2F%2Ffonts.googleapis.com%2Fcss%3Ffamily%3DDelius;" vertex="1" parent="8kvuc66AlGBP-AWIMMIC-111">
          <mxGeometry x="220" width="110" height="60" as="geometry" />
        </mxCell>
        <mxCell id="8kvuc66AlGBP-AWIMMIC-255" value="&lt;font data-font-src=&quot;https://fonts.googleapis.com/css?family=Delius&quot; face=&quot;Delius&quot;&gt;&lt;b&gt;POS Device&lt;/b&gt;&lt;/font&gt;&lt;font data-font-src=&quot;https://fonts.googleapis.com/css?family=Delius&quot; face=&quot;Delius&quot;&gt;&lt;b&gt;&lt;br&gt;&lt;/b&gt;&lt;/font&gt;" style="image;points=[];aspect=fixed;html=1;align=center;shadow=0;dashed=0;image=img/lib/allied_telesis/computer_and_terminals/POS_Printer.svg;direction=east;verticalAlign=top;" vertex="1" parent="8kvuc66AlGBP-AWIMMIC-111">
          <mxGeometry x="297" y="9" width="29.85" height="26" as="geometry" />
        </mxCell>
        <mxCell id="8kvuc66AlGBP-AWIMMIC-287" value="" style="fontColor=#0066CC;verticalAlign=top;verticalLabelPosition=bottom;labelPosition=center;align=center;html=1;outlineConnect=0;fillColor=#CCCCCC;strokeColor=#6881B3;gradientColor=none;gradientDirection=north;strokeWidth=2;shape=mxgraph.networks.pc;flipH=1;flipV=0;" vertex="1" parent="8kvuc66AlGBP-AWIMMIC-111">
          <mxGeometry x="30" y="7.5" width="50" height="45" as="geometry" />
        </mxCell>
        <mxCell id="8kvuc66AlGBP-AWIMMIC-294" value="" style="fontColor=#0066CC;verticalAlign=top;verticalLabelPosition=bottom;labelPosition=center;align=center;html=1;outlineConnect=0;fillColor=#CCCCCC;strokeColor=#6881B3;gradientColor=none;gradientDirection=north;strokeWidth=2;shape=mxgraph.networks.pc;flipH=1;flipV=0;" vertex="1" parent="8kvuc66AlGBP-AWIMMIC-111">
          <mxGeometry x="140" y="7.5" width="50" height="45" as="geometry" />
        </mxCell>
        <mxCell id="8kvuc66AlGBP-AWIMMIC-295" value="" style="fontColor=#0066CC;verticalAlign=top;verticalLabelPosition=bottom;labelPosition=center;align=center;html=1;outlineConnect=0;fillColor=#CCCCCC;strokeColor=#6881B3;gradientColor=none;gradientDirection=north;strokeWidth=2;shape=mxgraph.networks.pc;flipH=1;flipV=0;" vertex="1" parent="8kvuc66AlGBP-AWIMMIC-111">
          <mxGeometry x="239" y="4" width="50" height="45" as="geometry" />
        </mxCell>
        <mxCell id="8kvuc66AlGBP-AWIMMIC-343" value="" style="fontColor=#0066CC;verticalAlign=top;verticalLabelPosition=bottom;labelPosition=center;align=center;html=1;outlineConnect=0;fillColor=#CCCCCC;strokeColor=#6881B3;gradientColor=none;gradientDirection=north;strokeWidth=2;shape=mxgraph.networks.phone_2;direction=west;" vertex="1" parent="8kvuc66AlGBP-AWIMMIC-111">
          <mxGeometry x="88" y="21.5" width="15" height="15" as="geometry" />
        </mxCell>
        <mxCell id="8kvuc66AlGBP-AWIMMIC-344" value="" style="fontColor=#0066CC;verticalAlign=top;verticalLabelPosition=bottom;labelPosition=center;align=center;html=1;outlineConnect=0;fillColor=#CCCCCC;strokeColor=#6881B3;gradientColor=none;gradientDirection=north;strokeWidth=2;shape=mxgraph.networks.phone_2;direction=west;" vertex="1" parent="8kvuc66AlGBP-AWIMMIC-111">
          <mxGeometry x="197" y="20.5" width="15" height="15" as="geometry" />
        </mxCell>
        <mxCell id="8kvuc66AlGBP-AWIMMIC-345" value="" style="fontColor=#0066CC;verticalAlign=top;verticalLabelPosition=bottom;labelPosition=center;align=center;html=1;outlineConnect=0;fillColor=#CCCCCC;strokeColor=#6881B3;gradientColor=none;gradientDirection=north;strokeWidth=2;shape=mxgraph.networks.phone_2;direction=west;" vertex="1" parent="8kvuc66AlGBP-AWIMMIC-111">
          <mxGeometry x="222" y="19.5" width="15" height="15" as="geometry" />
        </mxCell>
        <mxCell id="8kvuc66AlGBP-AWIMMIC-350" style="edgeStyle=orthogonalEdgeStyle;rounded=1;orthogonalLoop=1;jettySize=auto;html=1;exitX=0.5;exitY=0.11;exitDx=0;exitDy=0;exitPerimeter=0;entryX=0.95;entryY=1;entryDx=0;entryDy=0;entryPerimeter=0;curved=0;endArrow=none;endFill=0;" edge="1" parent="8kvuc66AlGBP-AWIMMIC-111" source="8kvuc66AlGBP-AWIMMIC-345" target="8kvuc66AlGBP-AWIMMIC-295">
          <mxGeometry relative="1" as="geometry">
            <Array as="points">
              <mxPoint x="230" y="50" />
              <mxPoint x="242" y="50" />
            </Array>
          </mxGeometry>
        </mxCell>
        <mxCell id="8kvuc66AlGBP-AWIMMIC-351" style="edgeStyle=orthogonalEdgeStyle;rounded=1;orthogonalLoop=1;jettySize=auto;html=1;exitX=0.5;exitY=0.11;exitDx=0;exitDy=0;exitPerimeter=0;entryX=0;entryY=0.85;entryDx=0;entryDy=0;entryPerimeter=0;curved=0;endArrow=none;endFill=0;" edge="1" parent="8kvuc66AlGBP-AWIMMIC-111" source="8kvuc66AlGBP-AWIMMIC-344" target="8kvuc66AlGBP-AWIMMIC-294">
          <mxGeometry relative="1" as="geometry">
            <Array as="points">
              <mxPoint x="205" y="46" />
            </Array>
          </mxGeometry>
        </mxCell>
        <mxCell id="8kvuc66AlGBP-AWIMMIC-352" style="edgeStyle=orthogonalEdgeStyle;rounded=1;orthogonalLoop=1;jettySize=auto;html=1;exitX=0.5;exitY=0.11;exitDx=0;exitDy=0;exitPerimeter=0;entryX=0;entryY=0.85;entryDx=0;entryDy=0;entryPerimeter=0;curved=0;endArrow=none;endFill=0;" edge="1" parent="8kvuc66AlGBP-AWIMMIC-111" source="8kvuc66AlGBP-AWIMMIC-343" target="8kvuc66AlGBP-AWIMMIC-287">
          <mxGeometry relative="1" as="geometry">
            <Array as="points">
              <mxPoint x="96" y="46" />
            </Array>
          </mxGeometry>
        </mxCell>
        <mxCell id="8kvuc66AlGBP-AWIMMIC-120" value="" style="group;movable=1;resizable=1;rotatable=1;deletable=1;editable=1;locked=0;connectable=1;fontFamily=Delius;fontSource=https%3A%2F%2Ffonts.googleapis.com%2Fcss%3Ffamily%3DDelius;" vertex="1" connectable="0" parent="1">
          <mxGeometry x="877" y="31" width="120" height="240" as="geometry" />
        </mxCell>
        <mxCell id="8kvuc66AlGBP-AWIMMIC-93" value="" style="verticalLabelPosition=bottom;dashed=0;shadow=0;html=1;align=center;verticalAlign=top;shape=mxgraph.cabinets.cabinet;hasStand=1;movable=0;resizable=0;rotatable=0;deletable=0;editable=0;locked=1;connectable=0;" vertex="1" parent="8kvuc66AlGBP-AWIMMIC-120">
          <mxGeometry width="120" height="240" as="geometry" />
        </mxCell>
        <mxCell id="8kvuc66AlGBP-AWIMMIC-116" value="" style="shape=rect;dashed=0;shadow=0;html=1;whiteSpace=wrap;movable=0;resizable=0;rotatable=0;deletable=0;editable=0;locked=1;connectable=0;" vertex="1" parent="8kvuc66AlGBP-AWIMMIC-120">
          <mxGeometry x="15" y="38.75" width="90" height="12.5" as="geometry" />
        </mxCell>
        <mxCell id="8kvuc66AlGBP-AWIMMIC-117" value="" style="shape=rect;dashed=0;shadow=0;html=1;whiteSpace=wrap;movable=0;resizable=0;rotatable=0;deletable=0;editable=0;locked=1;connectable=0;" vertex="1" parent="8kvuc66AlGBP-AWIMMIC-120">
          <mxGeometry x="15" y="77.5" width="90" height="12.5" as="geometry" />
        </mxCell>
        <mxCell id="8kvuc66AlGBP-AWIMMIC-118" value="" style="shape=rect;dashed=0;shadow=0;html=1;whiteSpace=wrap;movable=0;resizable=0;rotatable=0;deletable=0;editable=0;locked=1;connectable=0;" vertex="1" parent="8kvuc66AlGBP-AWIMMIC-120">
          <mxGeometry x="15" y="120" width="90" height="12.5" as="geometry" />
        </mxCell>
        <mxCell id="8kvuc66AlGBP-AWIMMIC-119" value="" style="shape=rect;dashed=0;shadow=0;html=1;whiteSpace=wrap;movable=0;resizable=0;rotatable=0;deletable=0;editable=0;locked=1;connectable=0;" vertex="1" parent="8kvuc66AlGBP-AWIMMIC-120">
          <mxGeometry x="15" y="161.75" width="90" height="12.5" as="geometry" />
        </mxCell>
        <mxCell id="8kvuc66AlGBP-AWIMMIC-181" value="" style="fontColor=#0066CC;verticalAlign=top;verticalLabelPosition=bottom;labelPosition=center;align=center;html=1;outlineConnect=0;fillColor=#CCCCCC;strokeColor=#6881B3;gradientColor=none;gradientDirection=north;strokeWidth=2;shape=mxgraph.networks.switch;fontFamily=Delius;fontSource=https%3A%2F%2Ffonts.googleapis.com%2Fcss%3Ffamily%3DDelius;" vertex="1" parent="8kvuc66AlGBP-AWIMMIC-120">
          <mxGeometry x="32.5" y="63.5" width="54" height="13" as="geometry" />
        </mxCell>
        <mxCell id="8kvuc66AlGBP-AWIMMIC-178" value="" style="fontColor=#0066CC;verticalAlign=top;verticalLabelPosition=bottom;labelPosition=center;align=center;html=1;outlineConnect=0;fillColor=#CCCCCC;strokeColor=#6881B3;gradientColor=none;gradientDirection=north;strokeWidth=2;shape=mxgraph.networks.router;fontFamily=Delius;fontSource=https%3A%2F%2Ffonts.googleapis.com%2Fcss%3Ffamily%3DDelius;" vertex="1" parent="8kvuc66AlGBP-AWIMMIC-120">
          <mxGeometry x="33" y="148.75" width="54" height="13" as="geometry" />
        </mxCell>
        <mxCell id="8kvuc66AlGBP-AWIMMIC-183" value="" style="fontColor=#0066CC;verticalAlign=top;verticalLabelPosition=bottom;labelPosition=center;align=center;html=1;outlineConnect=0;fillColor=#CCCCCC;strokeColor=#6881B3;gradientColor=none;gradientDirection=north;strokeWidth=2;shape=mxgraph.networks.load_balancer;fontFamily=Delius;fontSource=https%3A%2F%2Ffonts.googleapis.com%2Fcss%3Ffamily%3DDelius;" vertex="1" parent="8kvuc66AlGBP-AWIMMIC-120">
          <mxGeometry x="32.5" y="105" width="54" height="13" as="geometry" />
        </mxCell>
        <mxCell id="8kvuc66AlGBP-AWIMMIC-186" style="edgeStyle=orthogonalEdgeStyle;rounded=1;orthogonalLoop=1;jettySize=auto;html=1;exitX=0.5;exitY=0;exitDx=0;exitDy=0;exitPerimeter=0;entryX=0.5;entryY=1;entryDx=0;entryDy=0;entryPerimeter=0;fontFamily=Delius;fontSource=https%3A%2F%2Ffonts.googleapis.com%2Fcss%3Ffamily%3DDelius;curved=0;endArrow=none;endFill=0;" edge="1" parent="8kvuc66AlGBP-AWIMMIC-120" source="8kvuc66AlGBP-AWIMMIC-178" target="8kvuc66AlGBP-AWIMMIC-183">
          <mxGeometry relative="1" as="geometry" />
        </mxCell>
        <mxCell id="8kvuc66AlGBP-AWIMMIC-195" value="&lt;font&gt;Switch&lt;/font&gt;" style="text;html=1;align=center;verticalAlign=middle;whiteSpace=wrap;rounded=0;rotation=0;fontFamily=Delius;fontSource=https%3A%2F%2Ffonts.googleapis.com%2Fcss%3Ffamily%3DDelius;fontStyle=1" vertex="1" parent="8kvuc66AlGBP-AWIMMIC-120">
          <mxGeometry x="29" y="67.5" width="60" height="30" as="geometry" />
        </mxCell>
        <mxCell id="8kvuc66AlGBP-AWIMMIC-196" value="&lt;font&gt;Load Balancer&lt;font&gt;&lt;br&gt;&lt;/font&gt;&lt;/font&gt;" style="text;html=1;align=center;verticalAlign=middle;whiteSpace=wrap;rounded=0;rotation=0;fontFamily=Delius;fontSource=https%3A%2F%2Ffonts.googleapis.com%2Fcss%3Ffamily%3DDelius;fontStyle=1" vertex="1" parent="8kvuc66AlGBP-AWIMMIC-120">
          <mxGeometry x="15" y="111.25" width="93" height="30" as="geometry" />
        </mxCell>
        <mxCell id="8kvuc66AlGBP-AWIMMIC-197" value="&lt;font&gt;Router&lt;font&gt;&lt;br&gt;&lt;/font&gt;&lt;/font&gt;" style="text;html=1;align=center;verticalAlign=middle;whiteSpace=wrap;rounded=0;rotation=0;fontFamily=Delius;fontSource=https%3A%2F%2Ffonts.googleapis.com%2Fcss%3Ffamily%3DDelius;fontStyle=1" vertex="1" parent="8kvuc66AlGBP-AWIMMIC-120">
          <mxGeometry x="29" y="151.75" width="60" height="30" as="geometry" />
        </mxCell>
        <mxCell id="8kvuc66AlGBP-AWIMMIC-362" style="edgeStyle=orthogonalEdgeStyle;rounded=1;orthogonalLoop=1;jettySize=auto;html=1;exitX=1;exitY=0.25;exitDx=0;exitDy=0;curved=0;endArrow=none;endFill=0;" edge="1" parent="8kvuc66AlGBP-AWIMMIC-120" source="8kvuc66AlGBP-AWIMMIC-213" target="8kvuc66AlGBP-AWIMMIC-359">
          <mxGeometry relative="1" as="geometry">
            <Array as="points">
              <mxPoint x="124" y="37" />
              <mxPoint x="124" y="188" />
            </Array>
          </mxGeometry>
        </mxCell>
        <mxCell id="8kvuc66AlGBP-AWIMMIC-213" value="&lt;font&gt;Patch Panel&lt;font&gt;&lt;br&gt;&lt;/font&gt;&lt;/font&gt;" style="text;html=1;align=center;verticalAlign=middle;whiteSpace=wrap;rounded=0;rotation=0;fontFamily=Delius;fontSource=https%3A%2F%2Ffonts.googleapis.com%2Fcss%3Ffamily%3DDelius;fontStyle=1" vertex="1" parent="8kvuc66AlGBP-AWIMMIC-120">
          <mxGeometry x="14" y="30" width="90" height="30" as="geometry" />
        </mxCell>
        <mxCell id="8kvuc66AlGBP-AWIMMIC-360" value="&lt;b&gt;&lt;font data-font-src=&quot;https://fonts.googleapis.com/css?family=Delius&quot; face=&quot;Delius&quot;&gt;WLC&lt;/font&gt;&lt;/b&gt;" style="sketch=0;points=[[0.015,0.015,0],[0.985,0.015,0],[0.985,0.985,0],[0.015,0.985,0],[0.25,0,0],[0.5,0,0],[0.75,0,0],[1,0.25,0],[1,0.5,0],[1,0.75,0],[0.75,1,0],[0.5,1,0],[0.25,1,0],[0,0.75,0],[0,0.5,0],[0,0.25,0]];verticalLabelPosition=bottom;html=1;verticalAlign=top;aspect=fixed;align=center;pointerEvents=1;shape=mxgraph.cisco19.rect;prIcon=wireless_lan_controller;fillColor=#FAFAFA;strokeColor=#005073;" vertex="1" parent="8kvuc66AlGBP-AWIMMIC-120">
          <mxGeometry x="44" y="175.25" width="29.44" height="23" as="geometry" />
        </mxCell>
        <mxCell id="8kvuc66AlGBP-AWIMMIC-359" value="&lt;b&gt;AP&lt;/b&gt;" style="image;points=[];aspect=fixed;html=1;align=center;shadow=0;dashed=0;image=img/lib/allied_telesis/wireless/Access_Point_Indoor.svg;" vertex="1" parent="8kvuc66AlGBP-AWIMMIC-120">
          <mxGeometry x="86.5" y="177.25" width="14.08" height="21" as="geometry" />
        </mxCell>
        <mxCell id="8kvuc66AlGBP-AWIMMIC-363" value="" style="points=[[0.005,0.09,0],[0.08,0,0],[0.76,0.25,0],[1,0.92,0],[0.91,0.995,0],[0.57,0.995,0],[0.045,0.955,0],[0.005,0.43,0]];verticalLabelPosition=bottom;sketch=0;html=1;verticalAlign=top;aspect=fixed;align=center;pointerEvents=1;shape=mxgraph.cisco19.3g_4g_indicator;fillColor=#005073;strokeColor=none;direction=north;" vertex="1" parent="8kvuc66AlGBP-AWIMMIC-120">
          <mxGeometry x="87.81" y="216.25" width="17.19" height="17.19" as="geometry" />
        </mxCell>
        <mxCell id="8kvuc66AlGBP-AWIMMIC-160" value="" style="shape=ellipse;shadow=0;html=1;fontFamily=Delius;fontSource=https%3A%2F%2Ffonts.googleapis.com%2Fcss%3Ffamily%3DDelius;" vertex="1" parent="1">
          <mxGeometry x="383" y="26" width="100" height="100" as="geometry" />
        </mxCell>
        <mxCell id="8kvuc66AlGBP-AWIMMIC-161" value="" style="shape=ellipse;shadow=0;html=1;fontFamily=Delius;fontSource=https%3A%2F%2Ffonts.googleapis.com%2Fcss%3Ffamily%3DDelius;" vertex="1" parent="1">
          <mxGeometry x="391" y="681" width="100" height="100" as="geometry" />
        </mxCell>
        <mxCell id="8kvuc66AlGBP-AWIMMIC-163" value="" style="shape=ellipse;shadow=0;html=1;fontFamily=Delius;fontSource=https%3A%2F%2Ffonts.googleapis.com%2Fcss%3Ffamily%3DDelius;" vertex="1" parent="1">
          <mxGeometry x="550" y="20" width="100" height="100" as="geometry" />
        </mxCell>
        <mxCell id="8kvuc66AlGBP-AWIMMIC-165" value="&lt;b&gt;BookShelf&lt;/b&gt;" style="verticalLabelPosition=bottom;html=1;verticalAlign=top;align=center;shape=mxgraph.floorplan.bookcase;fontFamily=Delius;fontSource=https%3A%2F%2Ffonts.googleapis.com%2Fcss%3Ffamily%3DDelius;" vertex="1" parent="1">
          <mxGeometry x="650" y="440" width="270" height="30" as="geometry" />
        </mxCell>
        <mxCell id="8kvuc66AlGBP-AWIMMIC-166" value="" style="verticalLabelPosition=bottom;html=1;verticalAlign=top;align=center;shape=mxgraph.floorplan.desk_corner;fontFamily=Delius;fontSource=https%3A%2F%2Ffonts.googleapis.com%2Fcss%3Ffamily%3DDelius;" vertex="1" parent="1">
          <mxGeometry x="40" y="25" width="150" height="150" as="geometry" />
        </mxCell>
        <mxCell id="8kvuc66AlGBP-AWIMMIC-167" value="" style="verticalLabelPosition=bottom;html=1;verticalAlign=top;align=center;shape=mxgraph.floorplan.couch;direction=north;fontFamily=Delius;fontSource=https%3A%2F%2Ffonts.googleapis.com%2Fcss%3Ffamily%3DDelius;" vertex="1" parent="1">
          <mxGeometry x="40" y="250" width="60" height="125" as="geometry" />
        </mxCell>
        <mxCell id="8kvuc66AlGBP-AWIMMIC-168" value="" style="verticalLabelPosition=bottom;html=1;verticalAlign=top;align=center;shape=mxgraph.floorplan.couch;direction=south;fontFamily=Delius;fontSource=https%3A%2F%2Ffonts.googleapis.com%2Fcss%3Ffamily%3DDelius;" vertex="1" parent="1">
          <mxGeometry x="420" y="250" width="60" height="125" as="geometry" />
        </mxCell>
        <mxCell id="8kvuc66AlGBP-AWIMMIC-169" value="" style="verticalLabelPosition=bottom;html=1;verticalAlign=top;align=center;shape=mxgraph.floorplan.piano;direction=north;fontFamily=Delius;fontSource=https%3A%2F%2Ffonts.googleapis.com%2Fcss%3Ffamily%3DDelius;" vertex="1" parent="1">
          <mxGeometry x="890" y="680" width="120" height="97.5" as="geometry" />
        </mxCell>
        <mxCell id="8kvuc66AlGBP-AWIMMIC-174" value="" style="verticalLabelPosition=bottom;html=1;verticalAlign=top;align=center;shape=mxgraph.floorplan.windowGarden;dx=0.25;direction=north;fontFamily=Delius;fontSource=https%3A%2F%2Ffonts.googleapis.com%2Fcss%3Ffamily%3DDelius;" vertex="1" parent="1">
          <mxGeometry x="470" y="135" width="30" height="100" as="geometry" />
        </mxCell>
        <mxCell id="8kvuc66AlGBP-AWIMMIC-175" value="" style="verticalLabelPosition=bottom;html=1;verticalAlign=top;align=center;shape=mxgraph.floorplan.windowGarden;dx=0.25;direction=north;fontFamily=Delius;fontSource=https%3A%2F%2Ffonts.googleapis.com%2Fcss%3Ffamily%3DDelius;" vertex="1" parent="1">
          <mxGeometry x="480" y="570" width="30" height="100" as="geometry" />
        </mxCell>
        <mxCell id="8kvuc66AlGBP-AWIMMIC-176" value="" style="verticalLabelPosition=bottom;html=1;verticalAlign=top;align=center;shape=mxgraph.floorplan.windowGarden;dx=0.25;direction=north;fontFamily=Delius;fontSource=https%3A%2F%2Ffonts.googleapis.com%2Fcss%3Ffamily%3DDelius;" vertex="1" parent="1">
          <mxGeometry x="997" y="530" width="30" height="100" as="geometry" />
        </mxCell>
        <mxCell id="8kvuc66AlGBP-AWIMMIC-263" style="edgeStyle=orthogonalEdgeStyle;rounded=1;orthogonalLoop=1;jettySize=auto;html=1;exitX=0.02;exitY=0.98;exitDx=0;exitDy=0;exitPerimeter=0;curved=0;endArrow=none;endFill=0;" edge="1" parent="1" source="8kvuc66AlGBP-AWIMMIC-177" target="8kvuc66AlGBP-AWIMMIC-258">
          <mxGeometry relative="1" as="geometry">
            <Array as="points">
              <mxPoint x="820" y="70" />
              <mxPoint x="820" y="70" />
            </Array>
          </mxGeometry>
        </mxCell>
        <mxCell id="8kvuc66AlGBP-AWIMMIC-374" style="edgeStyle=orthogonalEdgeStyle;rounded=1;orthogonalLoop=1;jettySize=auto;html=1;exitX=0.5;exitY=0;exitDx=0;exitDy=0;exitPerimeter=0;curved=0;endArrow=none;endFill=0;" edge="1" parent="1" source="8kvuc66AlGBP-AWIMMIC-177" target="8kvuc66AlGBP-AWIMMIC-216">
          <mxGeometry relative="1" as="geometry" />
        </mxCell>
        <mxCell id="8kvuc66AlGBP-AWIMMIC-177" value="" style="fontColor=#0066CC;verticalAlign=top;verticalLabelPosition=bottom;labelPosition=center;align=center;html=1;outlineConnect=0;fillColor=#CCCCCC;strokeColor=#6881B3;gradientColor=none;gradientDirection=north;strokeWidth=2;shape=mxgraph.networks.patch_panel;fontFamily=Delius;fontSource=https%3A%2F%2Ffonts.googleapis.com%2Fcss%3Ffamily%3DDelius;" vertex="1" parent="1">
          <mxGeometry x="892" y="47" width="90" height="23" as="geometry" />
        </mxCell>
        <mxCell id="8kvuc66AlGBP-AWIMMIC-184" value="" style="fontColor=#0066CC;verticalAlign=top;verticalLabelPosition=bottom;labelPosition=center;align=center;html=1;outlineConnect=0;fillColor=#CCCCCC;strokeColor=#6881B3;gradientColor=none;gradientDirection=north;strokeWidth=2;shape=mxgraph.networks.firewall;fontFamily=Delius;fontSource=https%3A%2F%2Ffonts.googleapis.com%2Fcss%3Ffamily%3DDelius;" vertex="1" parent="1">
          <mxGeometry x="785" y="109" width="70" height="70" as="geometry" />
        </mxCell>
        <mxCell id="8kvuc66AlGBP-AWIMMIC-185" style="edgeStyle=orthogonalEdgeStyle;rounded=1;orthogonalLoop=1;jettySize=auto;html=1;entryX=1;entryY=0.5;entryDx=0;entryDy=0;entryPerimeter=0;fontFamily=Delius;fontSource=https%3A%2F%2Ffonts.googleapis.com%2Fcss%3Ffamily%3DDelius;curved=0;endArrow=none;endFill=0;" edge="1" parent="1" source="8--HhbSZYtI3ddgJnD71-11" target="8kvuc66AlGBP-AWIMMIC-178">
          <mxGeometry relative="1" as="geometry" />
        </mxCell>
        <mxCell id="8kvuc66AlGBP-AWIMMIC-187" style="edgeStyle=orthogonalEdgeStyle;rounded=1;orthogonalLoop=1;jettySize=auto;html=1;exitX=0;exitY=0.5;exitDx=0;exitDy=0;exitPerimeter=0;fontFamily=Delius;fontSource=https%3A%2F%2Ffonts.googleapis.com%2Fcss%3Ffamily%3DDelius;curved=0;endArrow=none;endFill=0;" edge="1" parent="1" source="8kvuc66AlGBP-AWIMMIC-183" target="8kvuc66AlGBP-AWIMMIC-184">
          <mxGeometry relative="1" as="geometry">
            <Array as="points">
              <mxPoint x="870" y="142" />
              <mxPoint x="870" y="142" />
            </Array>
          </mxGeometry>
        </mxCell>
        <mxCell id="8kvuc66AlGBP-AWIMMIC-190" value="" style="edgeStyle=orthogonalEdgeStyle;rounded=1;orthogonalLoop=1;jettySize=auto;html=1;fontFamily=Delius;fontSource=https%3A%2F%2Ffonts.googleapis.com%2Fcss%3Ffamily%3DDelius;curved=0;endArrow=none;endFill=0;" edge="1" parent="1" source="8kvuc66AlGBP-AWIMMIC-181" target="8kvuc66AlGBP-AWIMMIC-177">
          <mxGeometry relative="1" as="geometry" />
        </mxCell>
        <mxCell id="8kvuc66AlGBP-AWIMMIC-198" value="&lt;font&gt;Firewall&lt;font&gt;&lt;font&gt;&lt;font&gt;&lt;br&gt;&lt;/font&gt;&lt;/font&gt;&lt;/font&gt;&lt;/font&gt;" style="text;html=1;align=center;verticalAlign=middle;whiteSpace=wrap;rounded=0;rotation=0;fontFamily=Delius;fontSource=https%3A%2F%2Ffonts.googleapis.com%2Fcss%3Ffamily%3DDelius;fontStyle=1" vertex="1" parent="1">
          <mxGeometry x="795" y="180" width="60" height="30" as="geometry" />
        </mxCell>
        <mxCell id="8kvuc66AlGBP-AWIMMIC-214" value="" style="group;fontFamily=Delius;fontSource=https%3A%2F%2Ffonts.googleapis.com%2Fcss%3Ffamily%3DDelius;" vertex="1" connectable="0" parent="1">
          <mxGeometry x="466" y="144" width="30" height="101" as="geometry" />
        </mxCell>
        <mxCell id="8kvuc66AlGBP-AWIMMIC-191" value="" style="fontColor=#0066CC;verticalAlign=top;verticalLabelPosition=bottom;labelPosition=center;align=center;html=1;outlineConnect=0;fillColor=#CCCCCC;strokeColor=#6881B3;gradientColor=none;gradientDirection=north;strokeWidth=2;shape=mxgraph.networks.switch;direction=south;fontFamily=Delius;fontSource=https%3A%2F%2Ffonts.googleapis.com%2Fcss%3Ffamily%3DDelius;" vertex="1" parent="8kvuc66AlGBP-AWIMMIC-214">
          <mxGeometry x="17" width="13" height="53" as="geometry" />
        </mxCell>
        <mxCell id="8kvuc66AlGBP-AWIMMIC-193" value="" style="image;points=[];aspect=fixed;html=1;align=center;shadow=0;dashed=0;image=img/lib/allied_telesis/wireless/Access_Point_Indoor.svg;fontFamily=Delius;fontSource=https%3A%2F%2Ffonts.googleapis.com%2Fcss%3Ffamily%3DDelius;" vertex="1" parent="8kvuc66AlGBP-AWIMMIC-214">
          <mxGeometry x="16.589999999999975" y="61" width="13.41" height="20" as="geometry" />
        </mxCell>
        <mxCell id="8kvuc66AlGBP-AWIMMIC-215" value="" style="group;fontFamily=Delius;fontSource=https%3A%2F%2Ffonts.googleapis.com%2Fcss%3Ffamily%3DDelius;" vertex="1" connectable="0" parent="1">
          <mxGeometry x="477" y="579" width="30" height="101" as="geometry" />
        </mxCell>
        <mxCell id="8kvuc66AlGBP-AWIMMIC-216" value="" style="fontColor=#0066CC;verticalAlign=top;verticalLabelPosition=bottom;labelPosition=center;align=center;html=1;outlineConnect=0;fillColor=#CCCCCC;strokeColor=#6881B3;gradientColor=none;gradientDirection=north;strokeWidth=2;shape=mxgraph.networks.switch;direction=south;fontFamily=Delius;fontSource=https%3A%2F%2Ffonts.googleapis.com%2Fcss%3Ffamily%3DDelius;" vertex="1" parent="8kvuc66AlGBP-AWIMMIC-215">
          <mxGeometry x="17" width="13" height="53" as="geometry" />
        </mxCell>
        <mxCell id="8kvuc66AlGBP-AWIMMIC-218" value="" style="image;points=[];aspect=fixed;html=1;align=center;shadow=0;dashed=0;image=img/lib/allied_telesis/wireless/Access_Point_Indoor.svg;fontFamily=Delius;fontSource=https%3A%2F%2Ffonts.googleapis.com%2Fcss%3Ffamily%3DDelius;" vertex="1" parent="8kvuc66AlGBP-AWIMMIC-215">
          <mxGeometry x="16.589999999999975" y="61" width="13.41" height="20" as="geometry" />
        </mxCell>
        <mxCell id="8kvuc66AlGBP-AWIMMIC-279" style="edgeStyle=orthogonalEdgeStyle;rounded=1;orthogonalLoop=1;jettySize=auto;html=1;entryX=0.838;entryY=0.35;entryDx=0;entryDy=0;entryPerimeter=0;curved=0;endArrow=none;endFill=0;exitX=0.95;exitY=0.05;exitDx=0;exitDy=0;exitPerimeter=0;" edge="1" parent="8kvuc66AlGBP-AWIMMIC-215" source="8kvuc66AlGBP-AWIMMIC-216" target="8kvuc66AlGBP-AWIMMIC-218">
          <mxGeometry relative="1" as="geometry" />
        </mxCell>
        <mxCell id="8kvuc66AlGBP-AWIMMIC-220" value="" style="group;fontFamily=Delius;fontSource=https%3A%2F%2Ffonts.googleapis.com%2Fcss%3Ffamily%3DDelius;" vertex="1" connectable="0" parent="1">
          <mxGeometry x="997" y="539" width="30" height="101" as="geometry" />
        </mxCell>
        <mxCell id="8kvuc66AlGBP-AWIMMIC-221" value="" style="fontColor=#0066CC;verticalAlign=top;verticalLabelPosition=bottom;labelPosition=center;align=center;html=1;outlineConnect=0;fillColor=#CCCCCC;strokeColor=#6881B3;gradientColor=none;gradientDirection=north;strokeWidth=2;shape=mxgraph.networks.switch;direction=south;fontFamily=Delius;fontSource=https%3A%2F%2Ffonts.googleapis.com%2Fcss%3Ffamily%3DDelius;" vertex="1" parent="8kvuc66AlGBP-AWIMMIC-220">
          <mxGeometry x="17" width="13" height="53" as="geometry" />
        </mxCell>
        <mxCell id="8kvuc66AlGBP-AWIMMIC-223" value="" style="image;points=[];aspect=fixed;html=1;align=center;shadow=0;dashed=0;image=img/lib/allied_telesis/wireless/Access_Point_Indoor.svg;fontFamily=Delius;fontSource=https%3A%2F%2Ffonts.googleapis.com%2Fcss%3Ffamily%3DDelius;" vertex="1" parent="8kvuc66AlGBP-AWIMMIC-220">
          <mxGeometry x="16.589999999999975" y="61" width="13.41" height="20" as="geometry" />
        </mxCell>
        <mxCell id="8kvuc66AlGBP-AWIMMIC-282" style="edgeStyle=orthogonalEdgeStyle;rounded=1;orthogonalLoop=1;jettySize=auto;html=1;exitX=1;exitY=0.5;exitDx=0;exitDy=0;exitPerimeter=0;entryX=0.66;entryY=0.104;entryDx=0;entryDy=0;entryPerimeter=0;curved=0;endArrow=none;endFill=0;" edge="1" parent="8kvuc66AlGBP-AWIMMIC-220" source="8kvuc66AlGBP-AWIMMIC-221" target="8kvuc66AlGBP-AWIMMIC-223">
          <mxGeometry relative="1" as="geometry" />
        </mxCell>
        <mxCell id="8kvuc66AlGBP-AWIMMIC-228" style="edgeStyle=orthogonalEdgeStyle;rounded=1;orthogonalLoop=1;jettySize=auto;html=1;entryX=0;entryY=0.5;entryDx=0;entryDy=0;entryPerimeter=0;fontFamily=Delius;fontSource=https%3A%2F%2Ffonts.googleapis.com%2Fcss%3Ffamily%3DDelius;curved=0;endArrow=none;endFill=0;" edge="1" parent="1" source="8kvuc66AlGBP-AWIMMIC-177" target="8kvuc66AlGBP-AWIMMIC-191">
          <mxGeometry relative="1" as="geometry">
            <Array as="points">
              <mxPoint x="937" y="10" />
              <mxPoint x="490" y="10" />
            </Array>
          </mxGeometry>
        </mxCell>
        <mxCell id="8kvuc66AlGBP-AWIMMIC-231" style="edgeStyle=orthogonalEdgeStyle;rounded=1;orthogonalLoop=1;jettySize=auto;html=1;exitX=0.98;exitY=0.51;exitDx=0;exitDy=0;exitPerimeter=0;entryX=0.88;entryY=0.8;entryDx=0;entryDy=0;entryPerimeter=0;fontFamily=Delius;fontSource=https%3A%2F%2Ffonts.googleapis.com%2Fcss%3Ffamily%3DDelius;endArrow=none;endFill=0;curved=0;" edge="1" parent="1">
          <mxGeometry relative="1" as="geometry">
            <mxPoint x="977" y="55.73000000000002" as="sourcePoint" />
            <mxPoint x="1017.8" y="539" as="targetPoint" />
          </mxGeometry>
        </mxCell>
        <mxCell id="8kvuc66AlGBP-AWIMMIC-234" style="edgeStyle=orthogonalEdgeStyle;rounded=1;orthogonalLoop=1;jettySize=auto;html=1;exitX=1;exitY=0;exitDx=0;exitDy=0;exitPerimeter=0;entryX=0.102;entryY=0.109;entryDx=0;entryDy=0;entryPerimeter=0;curved=0;endArrow=none;endFill=0;" edge="1" parent="1" source="8kvuc66AlGBP-AWIMMIC-184" target="8kvuc66AlGBP-AWIMMIC-195">
          <mxGeometry relative="1" as="geometry">
            <Array as="points">
              <mxPoint x="855" y="100" />
              <mxPoint x="912" y="100" />
            </Array>
          </mxGeometry>
        </mxCell>
        <mxCell id="8kvuc66AlGBP-AWIMMIC-235" value="" style="fontColor=#0066CC;verticalAlign=top;verticalLabelPosition=bottom;labelPosition=center;align=center;html=1;outlineConnect=0;fillColor=#CCCCCC;strokeColor=#6881B3;gradientColor=none;gradientDirection=north;strokeWidth=2;shape=mxgraph.networks.security_camera;flipH=1;direction=north;" vertex="1" parent="1">
          <mxGeometry x="360" y="770" width="40" height="50" as="geometry" />
        </mxCell>
        <mxCell id="8kvuc66AlGBP-AWIMMIC-236" value="" style="fontColor=#0066CC;verticalAlign=top;verticalLabelPosition=bottom;labelPosition=center;align=center;html=1;outlineConnect=0;fillColor=#CCCCCC;strokeColor=#6881B3;gradientColor=none;gradientDirection=north;strokeWidth=2;shape=mxgraph.networks.security_camera;flipH=1;direction=south;" vertex="1" parent="1">
          <mxGeometry x="260" y="1.5" width="40" height="48.5" as="geometry" />
        </mxCell>
        <mxCell id="8kvuc66AlGBP-AWIMMIC-237" value="" style="fontColor=#0066CC;verticalAlign=top;verticalLabelPosition=bottom;labelPosition=center;align=center;html=1;outlineConnect=0;fillColor=#CCCCCC;strokeColor=#6881B3;gradientColor=none;gradientDirection=north;strokeWidth=2;shape=mxgraph.networks.security_camera;" vertex="1" parent="1">
          <mxGeometry x="570" y="460" width="50" height="40" as="geometry" />
        </mxCell>
        <mxCell id="8kvuc66AlGBP-AWIMMIC-239" value="" style="edgeStyle=orthogonalEdgeStyle;rounded=1;orthogonalLoop=1;jettySize=auto;html=1;exitX=0.02;exitY=0.51;exitDx=0;exitDy=0;exitPerimeter=0;entryX=0.65;entryY=1;entryDx=0;entryDy=0;entryPerimeter=0;fontFamily=Delius;fontSource=https%3A%2F%2Ffonts.googleapis.com%2Fcss%3Ffamily%3DDelius;curved=0;endArrow=none;endFill=0;" edge="1" parent="1" target="8kvuc66AlGBP-AWIMMIC-238">
          <mxGeometry relative="1" as="geometry">
            <mxPoint x="893.8" y="59.73000000000002" as="sourcePoint" />
            <mxPoint x="510" y="606" as="targetPoint" />
            <Array as="points">
              <mxPoint x="845" y="60" />
            </Array>
          </mxGeometry>
        </mxCell>
        <mxCell id="8kvuc66AlGBP-AWIMMIC-238" value="" style="fontColor=#0066CC;verticalAlign=top;verticalLabelPosition=bottom;labelPosition=center;align=center;html=1;outlineConnect=0;fillColor=#CCCCCC;strokeColor=#6881B3;gradientColor=none;gradientDirection=north;strokeWidth=2;shape=mxgraph.networks.security_camera;direction=east;flipV=0;flipH=1;" vertex="1" parent="1">
          <mxGeometry x="827" y="10" width="50" height="40" as="geometry" />
        </mxCell>
        <mxCell id="8kvuc66AlGBP-AWIMMIC-241" style="edgeStyle=orthogonalEdgeStyle;rounded=1;orthogonalLoop=1;jettySize=auto;html=1;exitX=0.1;exitY=1;exitDx=0;exitDy=0;exitPerimeter=0;endArrow=none;endFill=0;curved=0;" edge="1" parent="1" source="8kvuc66AlGBP-AWIMMIC-191" target="8kvuc66AlGBP-AWIMMIC-236">
          <mxGeometry relative="1" as="geometry">
            <Array as="points">
              <mxPoint x="490" y="149" />
              <mxPoint x="490" y="20" />
            </Array>
          </mxGeometry>
        </mxCell>
        <mxCell id="8kvuc66AlGBP-AWIMMIC-242" style="edgeStyle=orthogonalEdgeStyle;rounded=1;orthogonalLoop=1;jettySize=auto;html=1;curved=0;endArrow=none;endFill=0;" edge="1" parent="1" source="8kvuc66AlGBP-AWIMMIC-216" target="8kvuc66AlGBP-AWIMMIC-235">
          <mxGeometry relative="1" as="geometry">
            <Array as="points">
              <mxPoint x="501" y="790" />
            </Array>
          </mxGeometry>
        </mxCell>
        <mxCell id="8kvuc66AlGBP-AWIMMIC-243" style="edgeStyle=orthogonalEdgeStyle;rounded=1;orthogonalLoop=1;jettySize=auto;html=1;curved=0;endArrow=none;endFill=0;" edge="1" parent="1" source="8kvuc66AlGBP-AWIMMIC-221" target="8kvuc66AlGBP-AWIMMIC-237">
          <mxGeometry relative="1" as="geometry">
            <Array as="points">
              <mxPoint x="1020" y="570" />
              <mxPoint x="1020" y="440" />
              <mxPoint x="595" y="440" />
            </Array>
          </mxGeometry>
        </mxCell>
        <mxCell id="8kvuc66AlGBP-AWIMMIC-244" value="" style="fontColor=#0066CC;verticalAlign=top;verticalLabelPosition=bottom;labelPosition=center;align=center;html=1;outlineConnect=0;fillColor=#CCCCCC;strokeColor=#6881B3;gradientColor=none;gradientDirection=north;strokeWidth=2;shape=mxgraph.networks.phone_2;" vertex="1" parent="1">
          <mxGeometry x="847" y="590" width="30" height="25" as="geometry" />
        </mxCell>
        <mxCell id="8kvuc66AlGBP-AWIMMIC-245" value="" style="fontColor=#0066CC;verticalAlign=top;verticalLabelPosition=bottom;labelPosition=center;align=center;html=1;outlineConnect=0;fillColor=#CCCCCC;strokeColor=#6881B3;gradientColor=none;gradientDirection=north;strokeWidth=2;shape=mxgraph.networks.phone_2;" vertex="1" parent="1">
          <mxGeometry x="697" y="607.5" width="30" height="25" as="geometry" />
        </mxCell>
        <mxCell id="8kvuc66AlGBP-AWIMMIC-247" style="edgeStyle=orthogonalEdgeStyle;rounded=1;orthogonalLoop=1;jettySize=auto;html=1;endArrow=none;endFill=0;curved=0;" edge="1" parent="1" source="8kvuc66AlGBP-AWIMMIC-221" target="8kvuc66AlGBP-AWIMMIC-244">
          <mxGeometry relative="1" as="geometry">
            <Array as="points">
              <mxPoint x="990" y="550" />
              <mxPoint x="990" y="603" />
            </Array>
          </mxGeometry>
        </mxCell>
        <mxCell id="8kvuc66AlGBP-AWIMMIC-248" style="edgeStyle=orthogonalEdgeStyle;rounded=1;orthogonalLoop=1;jettySize=auto;html=1;endArrow=none;endFill=0;curved=0;" edge="1" parent="1" source="8kvuc66AlGBP-AWIMMIC-221" target="8kvuc66AlGBP-AWIMMIC-245">
          <mxGeometry relative="1" as="geometry">
            <Array as="points">
              <mxPoint x="990" y="550" />
              <mxPoint x="990" y="620" />
            </Array>
          </mxGeometry>
        </mxCell>
        <mxCell id="8kvuc66AlGBP-AWIMMIC-250" style="edgeStyle=orthogonalEdgeStyle;rounded=1;orthogonalLoop=1;jettySize=auto;html=1;entryX=0.921;entryY=1;entryDx=0;entryDy=0;entryPerimeter=0;curved=0;endArrow=none;endFill=0;" edge="1" parent="1" target="8kvuc66AlGBP-AWIMMIC-94">
          <mxGeometry relative="1" as="geometry">
            <mxPoint x="1020" y="550" as="sourcePoint" />
            <Array as="points">
              <mxPoint x="1020" y="500" />
              <mxPoint x="1019" y="500" />
              <mxPoint x="1019" y="440" />
              <mxPoint x="560" y="440" />
              <mxPoint x="560" y="540" />
            </Array>
          </mxGeometry>
        </mxCell>
        <mxCell id="8kvuc66AlGBP-AWIMMIC-251" value="" style="fontColor=#0066CC;verticalAlign=top;verticalLabelPosition=bottom;labelPosition=center;align=center;html=1;outlineConnect=0;fillColor=#CCCCCC;strokeColor=#6881B3;gradientColor=none;gradientDirection=north;strokeWidth=2;shape=mxgraph.networks.laptop;direction=east;flipH=0;" vertex="1" parent="1">
          <mxGeometry x="803.75" y="630" width="32.5" height="23" as="geometry" />
        </mxCell>
        <mxCell id="8kvuc66AlGBP-AWIMMIC-252" value="" style="fontColor=#0066CC;verticalAlign=top;verticalLabelPosition=bottom;labelPosition=center;align=center;html=1;outlineConnect=0;fillColor=#CCCCCC;strokeColor=#6881B3;gradientColor=none;gradientDirection=north;strokeWidth=2;shape=mxgraph.networks.laptop;direction=east;flipH=0;" vertex="1" parent="1">
          <mxGeometry x="752.5" y="630" width="32.5" height="23" as="geometry" />
        </mxCell>
        <mxCell id="8kvuc66AlGBP-AWIMMIC-253" style="edgeStyle=orthogonalEdgeStyle;rounded=1;orthogonalLoop=1;jettySize=auto;html=1;endArrow=none;endFill=0;dashed=1;dashPattern=12 12;curved=0;" edge="1" parent="1" source="8kvuc66AlGBP-AWIMMIC-223" target="8kvuc66AlGBP-AWIMMIC-251">
          <mxGeometry relative="1" as="geometry">
            <Array as="points">
              <mxPoint x="1019" y="640" />
            </Array>
          </mxGeometry>
        </mxCell>
        <mxCell id="8kvuc66AlGBP-AWIMMIC-283" value="" style="edgeStyle=orthogonalEdgeStyle;rounded=1;orthogonalLoop=1;jettySize=auto;html=1;fontFamily=Delius;fontSource=https%3A%2F%2Ffonts.googleapis.com%2Fcss%3Ffamily%3DDelius;curved=0;endArrow=none;endFill=0;" edge="1" parent="1" source="8kvuc66AlGBP-AWIMMIC-257" target="8kvuc66AlGBP-AWIMMIC-191">
          <mxGeometry relative="1" as="geometry" />
        </mxCell>
        <mxCell id="8kvuc66AlGBP-AWIMMIC-257" value="&lt;font data-font-src=&quot;https://fonts.googleapis.com/css?family=Delius&quot; face=&quot;Delius&quot;&gt;&lt;b&gt;Printer&lt;/b&gt;&lt;/font&gt;" style="verticalLabelPosition=bottom;sketch=0;aspect=fixed;html=1;verticalAlign=top;strokeColor=none;align=center;outlineConnect=0;shape=mxgraph.citrix.printer;" vertex="1" parent="1">
          <mxGeometry x="411" y="48" width="44" height="44" as="geometry" />
        </mxCell>
        <mxCell id="8kvuc66AlGBP-AWIMMIC-258" value="&lt;font data-font-src=&quot;https://fonts.googleapis.com/css?family=Delius&quot; face=&quot;Delius&quot;&gt;&lt;b&gt;Printer&lt;/b&gt;&lt;/font&gt;" style="verticalLabelPosition=bottom;sketch=0;aspect=fixed;html=1;verticalAlign=top;strokeColor=none;align=center;outlineConnect=0;shape=mxgraph.citrix.printer;" vertex="1" parent="1">
          <mxGeometry x="578" y="47" width="44" height="44" as="geometry" />
        </mxCell>
        <mxCell id="8kvuc66AlGBP-AWIMMIC-259" value="&lt;font data-font-src=&quot;https://fonts.googleapis.com/css?family=Delius&quot; face=&quot;Delius&quot;&gt;&lt;b&gt;Printer&lt;/b&gt;&lt;/font&gt;" style="verticalLabelPosition=bottom;sketch=0;aspect=fixed;html=1;verticalAlign=top;strokeColor=none;align=center;outlineConnect=0;shape=mxgraph.citrix.printer;" vertex="1" parent="1">
          <mxGeometry x="419" y="700" width="44" height="44" as="geometry" />
        </mxCell>
        <mxCell id="8kvuc66AlGBP-AWIMMIC-260" style="edgeStyle=orthogonalEdgeStyle;rounded=1;orthogonalLoop=1;jettySize=auto;html=1;exitX=0.962;exitY=0.538;exitDx=0;exitDy=0;curved=0;endArrow=none;endFill=0;exitPerimeter=0;" edge="1" parent="1" source="8kvuc66AlGBP-AWIMMIC-216" target="8kvuc66AlGBP-AWIMMIC-259">
          <mxGeometry relative="1" as="geometry">
            <Array as="points">
              <mxPoint x="500" y="730" />
            </Array>
          </mxGeometry>
        </mxCell>
        <mxCell id="8kvuc66AlGBP-AWIMMIC-262" style="edgeStyle=orthogonalEdgeStyle;rounded=1;orthogonalLoop=1;jettySize=auto;html=1;curved=0;endArrow=none;endFill=0;" edge="1" parent="1" source="8kvuc66AlGBP-AWIMMIC-191" target="8kvuc66AlGBP-AWIMMIC-257">
          <mxGeometry relative="1" as="geometry">
            <Array as="points">
              <mxPoint x="490" y="70" />
            </Array>
          </mxGeometry>
        </mxCell>
        <mxCell id="8kvuc66AlGBP-AWIMMIC-264" style="edgeStyle=orthogonalEdgeStyle;rounded=1;orthogonalLoop=1;jettySize=auto;html=1;exitX=0.158;exitY=0.448;exitDx=0;exitDy=0;curved=0;endArrow=none;endFill=0;dashed=1;dashPattern=8 8;exitPerimeter=0;" edge="1" parent="1" source="8kvuc66AlGBP-AWIMMIC-193" target="8kvuc66AlGBP-AWIMMIC-255">
          <mxGeometry relative="1" as="geometry">
            <Array as="points">
              <mxPoint x="485" y="215" />
              <mxPoint x="460" y="215" />
              <mxPoint x="460" y="193" />
            </Array>
          </mxGeometry>
        </mxCell>
        <mxCell id="8kvuc66AlGBP-AWIMMIC-265" style="edgeStyle=orthogonalEdgeStyle;rounded=1;orthogonalLoop=1;jettySize=auto;html=1;dashed=1;dashPattern=12 12;curved=0;endArrow=none;endFill=0;" edge="1" parent="1" source="8kvuc66AlGBP-AWIMMIC-223" target="8kvuc66AlGBP-AWIMMIC-252">
          <mxGeometry relative="1" as="geometry">
            <Array as="points">
              <mxPoint x="1020" y="650" />
            </Array>
          </mxGeometry>
        </mxCell>
        <mxCell id="8kvuc66AlGBP-AWIMMIC-266" value="&lt;span&gt;Android TV&lt;/span&gt;" style="text;html=1;align=center;verticalAlign=middle;whiteSpace=wrap;rounded=0;rotation=270;fontStyle=1" vertex="1" parent="1">
          <mxGeometry x="550" y="610" width="66" height="30" as="geometry" />
        </mxCell>
        <mxCell id="8kvuc66AlGBP-AWIMMIC-267" value="&lt;b&gt;Piano&lt;/b&gt;" style="text;html=1;align=center;verticalAlign=middle;whiteSpace=wrap;rounded=0;rotation=0;" vertex="1" parent="1">
          <mxGeometry x="920" y="770" width="66" height="30" as="geometry" />
        </mxCell>
        <mxCell id="8kvuc66AlGBP-AWIMMIC-222" value="&lt;font&gt;&lt;b&gt;&lt;font&gt;Switch&lt;/font&gt;&lt;/b&gt;&lt;/font&gt;" style="text;html=1;align=center;verticalAlign=middle;whiteSpace=wrap;rounded=0;rotation=90;fontFamily=Delius;fontSource=https%3A%2F%2Ffonts.googleapis.com%2Fcss%3Ffamily%3DDelius;fontColor=#FFFFFF;" vertex="1" parent="1">
          <mxGeometry x="1010" y="549" width="60" height="30" as="geometry" />
        </mxCell>
        <mxCell id="8kvuc66AlGBP-AWIMMIC-224" value="&lt;font&gt;&lt;b&gt;&lt;font&gt;AP&lt;/font&gt;&lt;/b&gt;&lt;/font&gt;" style="text;html=1;align=center;verticalAlign=middle;whiteSpace=wrap;rounded=0;rotation=90;fontFamily=Delius;fontSource=https%3A%2F%2Ffonts.googleapis.com%2Fcss%3Ffamily%3DDelius;fontColor=#FFFFFF;" vertex="1" parent="1">
          <mxGeometry x="1009" y="605" width="60" height="20" as="geometry" />
        </mxCell>
        <mxCell id="8kvuc66AlGBP-AWIMMIC-272" value="&lt;font&gt;&lt;b&gt;&lt;font&gt;Switch&lt;/font&gt;&lt;/b&gt;&lt;/font&gt;" style="text;html=1;align=center;verticalAlign=middle;whiteSpace=wrap;rounded=0;rotation=90;fontFamily=Delius;fontSource=https%3A%2F%2Ffonts.googleapis.com%2Fcss%3Ffamily%3DDelius;fontColor=#FFFFFF;" vertex="1" parent="1">
          <mxGeometry x="490" y="595" width="60" height="30" as="geometry" />
        </mxCell>
        <mxCell id="8kvuc66AlGBP-AWIMMIC-219" value="&lt;font&gt;&lt;b&gt;&lt;font&gt;AP&lt;/font&gt;&lt;/b&gt;&lt;/font&gt;" style="text;html=1;align=center;verticalAlign=middle;whiteSpace=wrap;rounded=0;rotation=90;fontFamily=Delius;fontSource=https%3A%2F%2Ffonts.googleapis.com%2Fcss%3Ffamily%3DDelius;fontColor=#FFFFFF;" vertex="1" parent="1">
          <mxGeometry x="490" y="640" width="60" height="20" as="geometry" />
        </mxCell>
        <mxCell id="8kvuc66AlGBP-AWIMMIC-194" value="&lt;font&gt;&lt;b&gt;&lt;font&gt;AP&lt;/font&gt;&lt;/b&gt;&lt;/font&gt;" style="text;html=1;align=center;verticalAlign=middle;whiteSpace=wrap;rounded=0;rotation=90;fontFamily=Delius;fontSource=https%3A%2F%2Ffonts.googleapis.com%2Fcss%3Ffamily%3DDelius;fontColor=#FFFFFF;" vertex="1" parent="1">
          <mxGeometry x="497" y="207" width="20" height="20" as="geometry" />
        </mxCell>
        <mxCell id="8kvuc66AlGBP-AWIMMIC-192" value="&lt;font&gt;&lt;b&gt;&lt;font&gt;Switch&lt;/font&gt;&lt;/b&gt;&lt;/font&gt;" style="text;html=1;align=center;verticalAlign=middle;whiteSpace=wrap;rounded=0;rotation=90;fontFamily=Delius;fontSource=https%3A%2F%2Ffonts.googleapis.com%2Fcss%3Ffamily%3DDelius;fontColor=#FFFFFF;" vertex="1" parent="1">
          <mxGeometry x="477" y="160" width="60" height="30" as="geometry" />
        </mxCell>
        <mxCell id="8kvuc66AlGBP-AWIMMIC-296" value="" style="fontColor=#0066CC;verticalAlign=top;verticalLabelPosition=bottom;labelPosition=center;align=center;html=1;outlineConnect=0;fillColor=#CCCCCC;strokeColor=#6881B3;gradientColor=none;gradientDirection=north;strokeWidth=2;shape=mxgraph.networks.pc;flipH=1;flipV=0;direction=south;" vertex="1" parent="1">
          <mxGeometry x="567.5" y="160" width="45" height="50" as="geometry" />
        </mxCell>
        <mxCell id="8kvuc66AlGBP-AWIMMIC-297" value="" style="fontColor=#0066CC;verticalAlign=top;verticalLabelPosition=bottom;labelPosition=center;align=center;html=1;outlineConnect=0;fillColor=#CCCCCC;strokeColor=#6881B3;gradientColor=none;gradientDirection=north;strokeWidth=2;shape=mxgraph.networks.pc;flipH=1;flipV=0;" vertex="1" parent="1">
          <mxGeometry x="290" y="467.5" width="50" height="45" as="geometry" />
        </mxCell>
        <mxCell id="8kvuc66AlGBP-AWIMMIC-298" value="" style="fontColor=#0066CC;verticalAlign=top;verticalLabelPosition=bottom;labelPosition=center;align=center;html=1;outlineConnect=0;fillColor=#CCCCCC;strokeColor=#6881B3;gradientColor=none;gradientDirection=north;strokeWidth=2;shape=mxgraph.networks.pc;flipH=1;flipV=0;" vertex="1" parent="1">
          <mxGeometry x="180" y="467.5" width="50" height="45" as="geometry" />
        </mxCell>
        <mxCell id="8kvuc66AlGBP-AWIMMIC-299" value="" style="fontColor=#0066CC;verticalAlign=top;verticalLabelPosition=bottom;labelPosition=center;align=center;html=1;outlineConnect=0;fillColor=#CCCCCC;strokeColor=#6881B3;gradientColor=none;gradientDirection=north;strokeWidth=2;shape=mxgraph.networks.pc;flipH=1;flipV=0;direction=south;" vertex="1" parent="1">
          <mxGeometry x="47.5" y="587.5" width="45" height="50" as="geometry" />
        </mxCell>
        <mxCell id="8kvuc66AlGBP-AWIMMIC-300" value="" style="fontColor=#0066CC;verticalAlign=top;verticalLabelPosition=bottom;labelPosition=center;align=center;html=1;outlineConnect=0;fillColor=#CCCCCC;strokeColor=#6881B3;gradientColor=none;gradientDirection=north;strokeWidth=2;shape=mxgraph.networks.pc;flipH=1;flipV=0;direction=south;" vertex="1" parent="1">
          <mxGeometry x="47.5" y="694" width="45" height="50" as="geometry" />
        </mxCell>
        <mxCell id="8kvuc66AlGBP-AWIMMIC-301" value="" style="fontColor=#0066CC;verticalAlign=top;verticalLabelPosition=bottom;labelPosition=center;align=center;html=1;outlineConnect=0;fillColor=#CCCCCC;strokeColor=#6881B3;gradientColor=none;gradientDirection=north;strokeWidth=2;shape=mxgraph.networks.pc;flipH=1;flipV=0;" vertex="1" parent="1">
          <mxGeometry x="409" y="465.5" width="50" height="45" as="geometry" />
        </mxCell>
        <mxCell id="8kvuc66AlGBP-AWIMMIC-302" value="" style="fontColor=#0066CC;verticalAlign=top;verticalLabelPosition=bottom;labelPosition=center;align=center;html=1;outlineConnect=0;fillColor=#CCCCCC;strokeColor=#6881B3;gradientColor=none;gradientDirection=north;strokeWidth=2;shape=mxgraph.networks.pc;flipH=1;flipV=0;direction=south;" vertex="1" parent="1">
          <mxGeometry x="567.5" y="259" width="45" height="50" as="geometry" />
        </mxCell>
        <mxCell id="8kvuc66AlGBP-AWIMMIC-304" value="" style="fontColor=#0066CC;verticalAlign=top;verticalLabelPosition=bottom;labelPosition=center;align=center;html=1;outlineConnect=0;fillColor=#CCCCCC;strokeColor=#6881B3;gradientColor=none;gradientDirection=north;strokeWidth=2;shape=mxgraph.networks.user_male;" vertex="1" parent="1">
          <mxGeometry x="130" y="135" width="13" height="30" as="geometry" />
        </mxCell>
        <mxCell id="8kvuc66AlGBP-AWIMMIC-305" value="" style="fontColor=#0066CC;verticalAlign=top;verticalLabelPosition=bottom;labelPosition=center;align=center;html=1;outlineConnect=0;fillColor=#CCCCCC;strokeColor=#6881B3;gradientColor=none;gradientDirection=north;strokeWidth=2;shape=mxgraph.networks.user_male;" vertex="1" parent="1">
          <mxGeometry x="247" y="136" width="13" height="30" as="geometry" />
        </mxCell>
        <mxCell id="8kvuc66AlGBP-AWIMMIC-306" value="" style="fontColor=#0066CC;verticalAlign=top;verticalLabelPosition=bottom;labelPosition=center;align=center;html=1;outlineConnect=0;fillColor=#CCCCCC;strokeColor=#6881B3;gradientColor=none;gradientDirection=north;strokeWidth=2;shape=mxgraph.networks.user_male;" vertex="1" parent="1">
          <mxGeometry x="347" y="136" width="13" height="30" as="geometry" />
        </mxCell>
        <mxCell id="8kvuc66AlGBP-AWIMMIC-307" value="" style="fontColor=#0066CC;verticalAlign=top;verticalLabelPosition=bottom;labelPosition=center;align=center;html=1;outlineConnect=0;fillColor=#CCCCCC;strokeColor=#6881B3;gradientColor=none;gradientDirection=north;strokeWidth=2;shape=mxgraph.networks.user_male;" vertex="1" parent="1">
          <mxGeometry x="198.5" y="530" width="13" height="30" as="geometry" />
        </mxCell>
        <mxCell id="8kvuc66AlGBP-AWIMMIC-308" value="" style="fontColor=#0066CC;verticalAlign=top;verticalLabelPosition=bottom;labelPosition=center;align=center;html=1;outlineConnect=0;fillColor=#CCCCCC;strokeColor=#6881B3;gradientColor=none;gradientDirection=north;strokeWidth=2;shape=mxgraph.networks.user_male;" vertex="1" parent="1">
          <mxGeometry x="308.5" y="530" width="13" height="30" as="geometry" />
        </mxCell>
        <mxCell id="8kvuc66AlGBP-AWIMMIC-309" value="" style="fontColor=#0066CC;verticalAlign=top;verticalLabelPosition=bottom;labelPosition=center;align=center;html=1;outlineConnect=0;fillColor=#CCCCCC;strokeColor=#6881B3;gradientColor=none;gradientDirection=north;strokeWidth=2;shape=mxgraph.networks.user_male;" vertex="1" parent="1">
          <mxGeometry x="426.5" y="529" width="13" height="30" as="geometry" />
        </mxCell>
        <mxCell id="8kvuc66AlGBP-AWIMMIC-310" value="" style="fontColor=#0066CC;verticalAlign=top;verticalLabelPosition=bottom;labelPosition=center;align=center;html=1;outlineConnect=0;fillColor=#CCCCCC;strokeColor=#6881B3;gradientColor=none;gradientDirection=north;strokeWidth=2;shape=mxgraph.networks.user_male;" vertex="1" parent="1">
          <mxGeometry x="108.5" y="597.5" width="13" height="30" as="geometry" />
        </mxCell>
        <mxCell id="8kvuc66AlGBP-AWIMMIC-311" value="" style="fontColor=#0066CC;verticalAlign=top;verticalLabelPosition=bottom;labelPosition=center;align=center;html=1;outlineConnect=0;fillColor=#CCCCCC;strokeColor=#6881B3;gradientColor=none;gradientDirection=north;strokeWidth=2;shape=mxgraph.networks.user_male;" vertex="1" parent="1">
          <mxGeometry x="108.5" y="704" width="13" height="30" as="geometry" />
        </mxCell>
        <mxCell id="8kvuc66AlGBP-AWIMMIC-312" value="" style="fontColor=#0066CC;verticalAlign=top;verticalLabelPosition=bottom;labelPosition=center;align=center;html=1;outlineConnect=0;fillColor=#CCCCCC;strokeColor=#6881B3;gradientColor=none;gradientDirection=north;strokeWidth=2;shape=mxgraph.networks.user_male;" vertex="1" parent="1">
          <mxGeometry x="593.5" y="549" width="13" height="30" as="geometry" />
        </mxCell>
        <mxCell id="8kvuc66AlGBP-AWIMMIC-317" value="" style="group" vertex="1" connectable="0" parent="1">
          <mxGeometry x="705.5" y="525" width="171.5" height="30" as="geometry" />
        </mxCell>
        <mxCell id="8kvuc66AlGBP-AWIMMIC-313" value="" style="fontColor=#0066CC;verticalAlign=top;verticalLabelPosition=bottom;labelPosition=center;align=center;html=1;outlineConnect=0;fillColor=#CCCCCC;strokeColor=#6881B3;gradientColor=none;gradientDirection=north;strokeWidth=2;shape=mxgraph.networks.user_male;" vertex="1" parent="8kvuc66AlGBP-AWIMMIC-317">
          <mxGeometry width="13" height="30" as="geometry" />
        </mxCell>
        <mxCell id="8kvuc66AlGBP-AWIMMIC-314" value="" style="fontColor=#0066CC;verticalAlign=top;verticalLabelPosition=bottom;labelPosition=center;align=center;html=1;outlineConnect=0;fillColor=#CCCCCC;strokeColor=#6881B3;gradientColor=none;gradientDirection=north;strokeWidth=2;shape=mxgraph.networks.user_male;" vertex="1" parent="8kvuc66AlGBP-AWIMMIC-317">
          <mxGeometry x="56.75" width="13" height="30" as="geometry" />
        </mxCell>
        <mxCell id="8kvuc66AlGBP-AWIMMIC-315" value="" style="fontColor=#0066CC;verticalAlign=top;verticalLabelPosition=bottom;labelPosition=center;align=center;html=1;outlineConnect=0;fillColor=#CCCCCC;strokeColor=#6881B3;gradientColor=none;gradientDirection=north;strokeWidth=2;shape=mxgraph.networks.user_male;" vertex="1" parent="8kvuc66AlGBP-AWIMMIC-317">
          <mxGeometry x="108" width="13" height="30" as="geometry" />
        </mxCell>
        <mxCell id="8kvuc66AlGBP-AWIMMIC-316" value="" style="fontColor=#0066CC;verticalAlign=top;verticalLabelPosition=bottom;labelPosition=center;align=center;html=1;outlineConnect=0;fillColor=#CCCCCC;strokeColor=#6881B3;gradientColor=none;gradientDirection=north;strokeWidth=2;shape=mxgraph.networks.user_male;" vertex="1" parent="8kvuc66AlGBP-AWIMMIC-317">
          <mxGeometry x="158.5" width="13" height="30" as="geometry" />
        </mxCell>
        <mxCell id="8kvuc66AlGBP-AWIMMIC-318" value="" style="group" vertex="1" connectable="0" parent="1">
          <mxGeometry x="709.25" y="685" width="171.5" height="30" as="geometry" />
        </mxCell>
        <mxCell id="8kvuc66AlGBP-AWIMMIC-319" value="" style="fontColor=#0066CC;verticalAlign=top;verticalLabelPosition=bottom;labelPosition=center;align=center;html=1;outlineConnect=0;fillColor=#CCCCCC;strokeColor=#6881B3;gradientColor=none;gradientDirection=north;strokeWidth=2;shape=mxgraph.networks.user_male;" vertex="1" parent="8kvuc66AlGBP-AWIMMIC-318">
          <mxGeometry width="13" height="30" as="geometry" />
        </mxCell>
        <mxCell id="8kvuc66AlGBP-AWIMMIC-320" value="" style="fontColor=#0066CC;verticalAlign=top;verticalLabelPosition=bottom;labelPosition=center;align=center;html=1;outlineConnect=0;fillColor=#CCCCCC;strokeColor=#6881B3;gradientColor=none;gradientDirection=north;strokeWidth=2;shape=mxgraph.networks.user_male;" vertex="1" parent="8kvuc66AlGBP-AWIMMIC-318">
          <mxGeometry x="56.75" width="13" height="30" as="geometry" />
        </mxCell>
        <mxCell id="8kvuc66AlGBP-AWIMMIC-321" value="" style="fontColor=#0066CC;verticalAlign=top;verticalLabelPosition=bottom;labelPosition=center;align=center;html=1;outlineConnect=0;fillColor=#CCCCCC;strokeColor=#6881B3;gradientColor=none;gradientDirection=north;strokeWidth=2;shape=mxgraph.networks.user_male;" vertex="1" parent="8kvuc66AlGBP-AWIMMIC-318">
          <mxGeometry x="108" width="13" height="30" as="geometry" />
        </mxCell>
        <mxCell id="8kvuc66AlGBP-AWIMMIC-322" value="" style="fontColor=#0066CC;verticalAlign=top;verticalLabelPosition=bottom;labelPosition=center;align=center;html=1;outlineConnect=0;fillColor=#CCCCCC;strokeColor=#6881B3;gradientColor=none;gradientDirection=north;strokeWidth=2;shape=mxgraph.networks.user_male;" vertex="1" parent="8kvuc66AlGBP-AWIMMIC-318">
          <mxGeometry x="158.5" width="13" height="30" as="geometry" />
        </mxCell>
        <mxCell id="8kvuc66AlGBP-AWIMMIC-324" value="" style="fontColor=#0066CC;verticalAlign=top;verticalLabelPosition=bottom;labelPosition=center;align=center;html=1;outlineConnect=0;fillColor=#CCCCCC;strokeColor=#6881B3;gradientColor=none;gradientDirection=north;strokeWidth=2;shape=mxgraph.networks.user_male;" vertex="1" parent="1">
          <mxGeometry x="630" y="170" width="13" height="30" as="geometry" />
        </mxCell>
        <mxCell id="8kvuc66AlGBP-AWIMMIC-325" value="" style="fontColor=#0066CC;verticalAlign=top;verticalLabelPosition=bottom;labelPosition=center;align=center;html=1;outlineConnect=0;fillColor=#CCCCCC;strokeColor=#6881B3;gradientColor=none;gradientDirection=north;strokeWidth=2;shape=mxgraph.networks.user_male;" vertex="1" parent="1">
          <mxGeometry x="630" y="279" width="13" height="30" as="geometry" />
        </mxCell>
        <mxCell id="8kvuc66AlGBP-AWIMMIC-326" style="edgeStyle=orthogonalEdgeStyle;rounded=1;orthogonalLoop=1;jettySize=auto;html=1;exitX=0;exitY=0;exitDx=0;exitDy=0;curved=0;endArrow=none;endFill=0;" edge="1" parent="1" source="8kvuc66AlGBP-AWIMMIC-213" target="8kvuc66AlGBP-AWIMMIC-346">
          <mxGeometry relative="1" as="geometry">
            <Array as="points">
              <mxPoint x="891" y="41" />
              <mxPoint x="550" y="41" />
              <mxPoint x="550" y="225" />
            </Array>
          </mxGeometry>
        </mxCell>
        <mxCell id="8kvuc66AlGBP-AWIMMIC-327" style="edgeStyle=orthogonalEdgeStyle;rounded=1;orthogonalLoop=1;jettySize=auto;html=1;exitX=0;exitY=0;exitDx=0;exitDy=0;curved=0;endArrow=none;endFill=0;entryX=0.5;entryY=0.11;entryDx=0;entryDy=0;entryPerimeter=0;" edge="1" parent="1" source="8kvuc66AlGBP-AWIMMIC-213" target="8kvuc66AlGBP-AWIMMIC-347">
          <mxGeometry relative="1" as="geometry">
            <Array as="points">
              <mxPoint x="891" y="41" />
              <mxPoint x="550" y="41" />
              <mxPoint x="550" y="320" />
              <mxPoint x="580" y="320" />
            </Array>
          </mxGeometry>
        </mxCell>
        <mxCell id="8kvuc66AlGBP-AWIMMIC-328" style="edgeStyle=orthogonalEdgeStyle;rounded=1;orthogonalLoop=1;jettySize=auto;html=1;exitX=0.5;exitY=1;exitDx=0;exitDy=0;exitPerimeter=0;curved=0;endArrow=none;endFill=0;" edge="1" parent="1" source="8kvuc66AlGBP-AWIMMIC-191" target="8kvuc66AlGBP-AWIMMIC-345">
          <mxGeometry relative="1" as="geometry">
            <Array as="points">
              <mxPoint x="431" y="171" />
              <mxPoint x="320" y="170" />
            </Array>
          </mxGeometry>
        </mxCell>
        <mxCell id="8kvuc66AlGBP-AWIMMIC-329" style="edgeStyle=orthogonalEdgeStyle;rounded=1;orthogonalLoop=1;jettySize=auto;html=1;exitX=0.5;exitY=1;exitDx=0;exitDy=0;exitPerimeter=0;curved=0;endArrow=none;endFill=0;" edge="1" parent="1" source="8kvuc66AlGBP-AWIMMIC-191" target="8kvuc66AlGBP-AWIMMIC-344">
          <mxGeometry relative="1" as="geometry">
            <Array as="points">
              <mxPoint x="381" y="171" />
              <mxPoint x="295" y="170" />
            </Array>
          </mxGeometry>
        </mxCell>
        <mxCell id="8kvuc66AlGBP-AWIMMIC-330" style="edgeStyle=orthogonalEdgeStyle;rounded=1;orthogonalLoop=1;jettySize=auto;html=1;exitX=0.5;exitY=1;exitDx=0;exitDy=0;exitPerimeter=0;curved=0;endArrow=none;endFill=0;" edge="1" parent="1" source="8kvuc66AlGBP-AWIMMIC-191" target="8kvuc66AlGBP-AWIMMIC-343">
          <mxGeometry relative="1" as="geometry">
            <Array as="points">
              <mxPoint x="327" y="171" />
              <mxPoint x="186" y="170" />
            </Array>
          </mxGeometry>
        </mxCell>
        <mxCell id="8kvuc66AlGBP-AWIMMIC-331" style="edgeStyle=orthogonalEdgeStyle;rounded=1;orthogonalLoop=1;jettySize=auto;html=1;exitX=0.5;exitY=1;exitDx=0;exitDy=0;exitPerimeter=0;curved=0;endArrow=none;endFill=0;" edge="1" parent="1" source="8kvuc66AlGBP-AWIMMIC-216" target="8kvuc66AlGBP-AWIMMIC-338">
          <mxGeometry relative="1" as="geometry">
            <Array as="points">
              <mxPoint x="494" y="460" />
              <mxPoint x="390" y="460" />
            </Array>
          </mxGeometry>
        </mxCell>
        <mxCell id="8kvuc66AlGBP-AWIMMIC-332" style="edgeStyle=orthogonalEdgeStyle;rounded=1;orthogonalLoop=1;jettySize=auto;html=1;exitX=0.5;exitY=1;exitDx=0;exitDy=0;exitPerimeter=0;curved=0;endArrow=none;endFill=0;" edge="1" parent="1" source="8kvuc66AlGBP-AWIMMIC-216" target="8kvuc66AlGBP-AWIMMIC-339">
          <mxGeometry relative="1" as="geometry">
            <Array as="points">
              <mxPoint x="494" y="460" />
              <mxPoint x="275" y="460" />
            </Array>
          </mxGeometry>
        </mxCell>
        <mxCell id="8kvuc66AlGBP-AWIMMIC-333" style="edgeStyle=orthogonalEdgeStyle;rounded=1;orthogonalLoop=1;jettySize=auto;html=1;exitX=0.5;exitY=1;exitDx=0;exitDy=0;exitPerimeter=0;curved=0;endArrow=none;endFill=0;" edge="1" parent="1" source="8kvuc66AlGBP-AWIMMIC-216" target="8kvuc66AlGBP-AWIMMIC-340">
          <mxGeometry relative="1" as="geometry">
            <Array as="points">
              <mxPoint x="494" y="460" />
              <mxPoint x="170" y="460" />
            </Array>
          </mxGeometry>
        </mxCell>
        <mxCell id="8kvuc66AlGBP-AWIMMIC-334" style="edgeStyle=orthogonalEdgeStyle;rounded=1;orthogonalLoop=1;jettySize=auto;html=1;exitX=0.5;exitY=1;exitDx=0;exitDy=0;exitPerimeter=0;curved=0;endArrow=none;endFill=0;" edge="1" parent="1" source="8kvuc66AlGBP-AWIMMIC-216" target="8kvuc66AlGBP-AWIMMIC-341">
          <mxGeometry relative="1" as="geometry">
            <Array as="points">
              <mxPoint x="494" y="460" />
              <mxPoint x="40" y="460" />
              <mxPoint x="40" y="653" />
            </Array>
          </mxGeometry>
        </mxCell>
        <mxCell id="8kvuc66AlGBP-AWIMMIC-335" style="edgeStyle=orthogonalEdgeStyle;rounded=1;orthogonalLoop=1;jettySize=auto;html=1;exitX=0.5;exitY=1;exitDx=0;exitDy=0;exitPerimeter=0;curved=0;endArrow=none;endFill=0;" edge="1" parent="1" source="8kvuc66AlGBP-AWIMMIC-216" target="8kvuc66AlGBP-AWIMMIC-342">
          <mxGeometry relative="1" as="geometry">
            <Array as="points">
              <mxPoint x="494" y="460" />
              <mxPoint x="40" y="460" />
              <mxPoint x="40" y="756" />
            </Array>
          </mxGeometry>
        </mxCell>
        <mxCell id="8kvuc66AlGBP-AWIMMIC-336" value="&lt;font color=&quot;#000000&quot;&gt;&lt;b&gt;&lt;font data-font-src=&quot;https://fonts.googleapis.com/css?family=Delius&quot; face=&quot;Delius&quot;&gt;Files&lt;/font&gt;&lt;/b&gt;&lt;/font&gt;" style="fontColor=#0066CC;verticalAlign=top;verticalLabelPosition=bottom;labelPosition=center;align=center;html=1;outlineConnect=0;fillColor=#CCCCCC;strokeColor=#6881B3;gradientColor=none;gradientDirection=north;strokeWidth=2;shape=mxgraph.networks.storage;" vertex="1" parent="1">
          <mxGeometry x="50" y="36" width="50" height="45" as="geometry" />
        </mxCell>
        <mxCell id="8kvuc66AlGBP-AWIMMIC-337" value="" style="fontColor=#0066CC;verticalAlign=top;verticalLabelPosition=bottom;labelPosition=center;align=center;html=1;outlineConnect=0;fillColor=#CCCCCC;strokeColor=#6881B3;gradientColor=none;gradientDirection=north;strokeWidth=2;shape=mxgraph.networks.user_male;" vertex="1" parent="1">
          <mxGeometry x="130" y="70" width="13" height="30" as="geometry" />
        </mxCell>
        <mxCell id="8kvuc66AlGBP-AWIMMIC-338" value="" style="fontColor=#0066CC;verticalAlign=top;verticalLabelPosition=bottom;labelPosition=center;align=center;html=1;outlineConnect=0;fillColor=#CCCCCC;strokeColor=#6881B3;gradientColor=none;gradientDirection=north;strokeWidth=2;shape=mxgraph.networks.phone_2;" vertex="1" parent="1">
          <mxGeometry x="383" y="480.5" width="15" height="15" as="geometry" />
        </mxCell>
        <mxCell id="8kvuc66AlGBP-AWIMMIC-339" value="" style="fontColor=#0066CC;verticalAlign=top;verticalLabelPosition=bottom;labelPosition=center;align=center;html=1;outlineConnect=0;fillColor=#CCCCCC;strokeColor=#6881B3;gradientColor=none;gradientDirection=north;strokeWidth=2;shape=mxgraph.networks.phone_2;" vertex="1" parent="1">
          <mxGeometry x="267.5" y="480.5" width="15" height="15" as="geometry" />
        </mxCell>
        <mxCell id="8kvuc66AlGBP-AWIMMIC-340" value="" style="fontColor=#0066CC;verticalAlign=top;verticalLabelPosition=bottom;labelPosition=center;align=center;html=1;outlineConnect=0;fillColor=#CCCCCC;strokeColor=#6881B3;gradientColor=none;gradientDirection=north;strokeWidth=2;shape=mxgraph.networks.phone_2;" vertex="1" parent="1">
          <mxGeometry x="157" y="481.5" width="15" height="15" as="geometry" />
        </mxCell>
        <mxCell id="8kvuc66AlGBP-AWIMMIC-341" value="" style="fontColor=#0066CC;verticalAlign=top;verticalLabelPosition=bottom;labelPosition=center;align=center;html=1;outlineConnect=0;fillColor=#CCCCCC;strokeColor=#6881B3;gradientColor=none;gradientDirection=north;strokeWidth=2;shape=mxgraph.networks.phone_2;direction=north;" vertex="1" parent="1">
          <mxGeometry x="62.5" y="645" width="15" height="15" as="geometry" />
        </mxCell>
        <mxCell id="8kvuc66AlGBP-AWIMMIC-342" value="" style="fontColor=#0066CC;verticalAlign=top;verticalLabelPosition=bottom;labelPosition=center;align=center;html=1;outlineConnect=0;fillColor=#CCCCCC;strokeColor=#6881B3;gradientColor=none;gradientDirection=north;strokeWidth=2;shape=mxgraph.networks.phone_2;direction=north;" vertex="1" parent="1">
          <mxGeometry x="56.5" y="749" width="15" height="15" as="geometry" />
        </mxCell>
        <mxCell id="8kvuc66AlGBP-AWIMMIC-346" value="" style="fontColor=#0066CC;verticalAlign=top;verticalLabelPosition=bottom;labelPosition=center;align=center;html=1;outlineConnect=0;fillColor=#CCCCCC;strokeColor=#6881B3;gradientColor=none;gradientDirection=north;strokeWidth=2;shape=mxgraph.networks.phone_2;direction=north;" vertex="1" parent="1">
          <mxGeometry x="578.5" y="217" width="15" height="15" as="geometry" />
        </mxCell>
        <mxCell id="8kvuc66AlGBP-AWIMMIC-347" value="" style="fontColor=#0066CC;verticalAlign=top;verticalLabelPosition=bottom;labelPosition=center;align=center;html=1;outlineConnect=0;fillColor=#CCCCCC;strokeColor=#6881B3;gradientColor=none;gradientDirection=north;strokeWidth=2;shape=mxgraph.networks.phone_2;direction=north;" vertex="1" parent="1">
          <mxGeometry x="578" y="315" width="15" height="15" as="geometry" />
        </mxCell>
        <mxCell id="8kvuc66AlGBP-AWIMMIC-348" style="edgeStyle=orthogonalEdgeStyle;rounded=1;orthogonalLoop=1;jettySize=auto;html=1;exitX=0.5;exitY=1;exitDx=0;exitDy=0;exitPerimeter=0;entryX=0.95;entryY=1;entryDx=0;entryDy=0;entryPerimeter=0;curved=0;endArrow=none;endFill=0;" edge="1" parent="1" source="8kvuc66AlGBP-AWIMMIC-347" target="8kvuc66AlGBP-AWIMMIC-302">
          <mxGeometry relative="1" as="geometry" />
        </mxCell>
        <mxCell id="8kvuc66AlGBP-AWIMMIC-349" style="edgeStyle=orthogonalEdgeStyle;rounded=1;orthogonalLoop=1;jettySize=auto;html=1;exitX=0.5;exitY=1;exitDx=0;exitDy=0;exitPerimeter=0;entryX=0.95;entryY=1;entryDx=0;entryDy=0;entryPerimeter=0;curved=0;endArrow=none;endFill=0;" edge="1" parent="1" source="8kvuc66AlGBP-AWIMMIC-346" target="8kvuc66AlGBP-AWIMMIC-296">
          <mxGeometry relative="1" as="geometry" />
        </mxCell>
        <mxCell id="8kvuc66AlGBP-AWIMMIC-353" style="edgeStyle=orthogonalEdgeStyle;rounded=1;orthogonalLoop=1;jettySize=auto;html=1;exitX=0.5;exitY=1;exitDx=0;exitDy=0;exitPerimeter=0;curved=0;endArrow=none;endFill=0;" edge="1" parent="1">
          <mxGeometry relative="1" as="geometry">
            <mxPoint x="166.5" y="496.5" as="sourcePoint" />
            <mxPoint x="183.99999999999994" y="510" as="targetPoint" />
            <Array as="points">
              <mxPoint x="167" y="510" />
            </Array>
          </mxGeometry>
        </mxCell>
        <mxCell id="8kvuc66AlGBP-AWIMMIC-355" style="edgeStyle=orthogonalEdgeStyle;rounded=1;orthogonalLoop=1;jettySize=auto;html=1;exitX=0.5;exitY=1;exitDx=0;exitDy=0;exitPerimeter=0;entryX=0.95;entryY=1;entryDx=0;entryDy=0;entryPerimeter=0;curved=0;endArrow=none;endFill=0;" edge="1" parent="1" source="8kvuc66AlGBP-AWIMMIC-339" target="8kvuc66AlGBP-AWIMMIC-297">
          <mxGeometry relative="1" as="geometry">
            <Array as="points">
              <mxPoint x="275" y="510" />
              <mxPoint x="293" y="510" />
            </Array>
          </mxGeometry>
        </mxCell>
        <mxCell id="8kvuc66AlGBP-AWIMMIC-356" style="edgeStyle=orthogonalEdgeStyle;rounded=1;orthogonalLoop=1;jettySize=auto;html=1;exitX=0.5;exitY=1;exitDx=0;exitDy=0;exitPerimeter=0;entryX=0.95;entryY=1;entryDx=0;entryDy=0;entryPerimeter=0;curved=0;endArrow=none;endFill=0;" edge="1" parent="1" source="8kvuc66AlGBP-AWIMMIC-338" target="8kvuc66AlGBP-AWIMMIC-301">
          <mxGeometry relative="1" as="geometry">
            <Array as="points">
              <mxPoint x="391" y="511" />
            </Array>
          </mxGeometry>
        </mxCell>
        <mxCell id="8kvuc66AlGBP-AWIMMIC-357" style="edgeStyle=orthogonalEdgeStyle;rounded=0;orthogonalLoop=1;jettySize=auto;html=1;exitX=0.5;exitY=1;exitDx=0;exitDy=0;exitPerimeter=0;entryX=0.95;entryY=1;entryDx=0;entryDy=0;entryPerimeter=0;curved=1;endArrow=none;endFill=0;" edge="1" parent="1" source="8kvuc66AlGBP-AWIMMIC-341" target="8kvuc66AlGBP-AWIMMIC-299">
          <mxGeometry relative="1" as="geometry" />
        </mxCell>
        <mxCell id="8kvuc66AlGBP-AWIMMIC-358" style="edgeStyle=orthogonalEdgeStyle;rounded=1;orthogonalLoop=1;jettySize=auto;html=1;exitX=0.5;exitY=1;exitDx=0;exitDy=0;exitPerimeter=0;entryX=0.95;entryY=1;entryDx=0;entryDy=0;entryPerimeter=0;curved=0;endArrow=none;endFill=0;" edge="1" parent="1" source="8kvuc66AlGBP-AWIMMIC-342" target="8kvuc66AlGBP-AWIMMIC-300">
          <mxGeometry relative="1" as="geometry" />
        </mxCell>
        <mxCell id="8kvuc66AlGBP-AWIMMIC-361" style="edgeStyle=orthogonalEdgeStyle;rounded=1;orthogonalLoop=1;jettySize=auto;html=1;exitX=0.02;exitY=0.98;exitDx=0;exitDy=0;exitPerimeter=0;entryX=0.059;entryY=0.539;entryDx=0;entryDy=0;entryPerimeter=0;curved=0;endArrow=none;endFill=0;" edge="1" parent="1" source="8kvuc66AlGBP-AWIMMIC-177" target="8kvuc66AlGBP-AWIMMIC-360">
          <mxGeometry relative="1" as="geometry">
            <Array as="points">
              <mxPoint x="894" y="219" />
            </Array>
          </mxGeometry>
        </mxCell>
        <mxCell id="8kvuc66AlGBP-AWIMMIC-364" value="" style="points=[[0.005,0.09,0],[0.08,0,0],[0.76,0.25,0],[1,0.92,0],[0.91,0.995,0],[0.57,0.995,0],[0.045,0.955,0],[0.005,0.43,0]];verticalLabelPosition=bottom;sketch=0;html=1;verticalAlign=top;aspect=fixed;align=center;pointerEvents=1;shape=mxgraph.cisco19.3g_4g_indicator;fillColor=#005073;strokeColor=none;direction=north;" vertex="1" parent="1">
          <mxGeometry x="450.80999999999995" y="214" width="17.19" height="17.19" as="geometry" />
        </mxCell>
        <mxCell id="8kvuc66AlGBP-AWIMMIC-365" value="" style="points=[[0.005,0.09,0],[0.08,0,0],[0.76,0.25,0],[1,0.92,0],[0.91,0.995,0],[0.57,0.995,0],[0.045,0.955,0],[0.005,0.43,0]];verticalLabelPosition=bottom;sketch=0;html=1;verticalAlign=top;aspect=fixed;align=center;pointerEvents=1;shape=mxgraph.cisco19.3g_4g_indicator;fillColor=#005073;strokeColor=none;direction=north;" vertex="1" parent="1">
          <mxGeometry x="458.99999999999994" y="640" width="17.19" height="17.19" as="geometry" />
        </mxCell>
        <mxCell id="8kvuc66AlGBP-AWIMMIC-366" value="" style="points=[[0.005,0.09,0],[0.08,0,0],[0.76,0.25,0],[1,0.92,0],[0.91,0.995,0],[0.57,0.995,0],[0.045,0.955,0],[0.005,0.43,0]];verticalLabelPosition=bottom;sketch=0;html=1;verticalAlign=top;aspect=fixed;align=center;pointerEvents=1;shape=mxgraph.cisco19.3g_4g_indicator;fillColor=#005073;strokeColor=none;direction=north;" vertex="1" parent="1">
          <mxGeometry x="976.81" y="619.31" width="17.19" height="17.19" as="geometry" />
        </mxCell>
        <mxCell id="8kvuc66AlGBP-AWIMMIC-370" style="edgeStyle=orthogonalEdgeStyle;rounded=1;orthogonalLoop=1;jettySize=auto;html=1;exitX=0.5;exitY=0;exitDx=0;exitDy=0;exitPerimeter=0;curved=0;endArrow=none;endFill=0;" edge="1" parent="1" source="8kvuc66AlGBP-AWIMMIC-369">
          <mxGeometry relative="1" as="geometry">
            <mxPoint x="100" y="460" as="targetPoint" />
          </mxGeometry>
        </mxCell>
        <mxCell id="8kvuc66AlGBP-AWIMMIC-369" value="" style="fontColor=#0066CC;verticalAlign=top;verticalLabelPosition=bottom;labelPosition=center;align=center;html=1;outlineConnect=0;fillColor=#CCCCCC;strokeColor=#6881B3;gradientColor=none;gradientDirection=north;strokeWidth=2;shape=mxgraph.networks.web_server;" vertex="1" parent="1">
          <mxGeometry x="47.5" y="467.5" width="40" height="35" as="geometry" />
        </mxCell>
        <mxCell id="8kvuc66AlGBP-AWIMMIC-371" value="&lt;div&gt;&lt;font data-font-src=&quot;https://fonts.googleapis.com/css?family=Delius&quot; face=&quot;Delius&quot; style=&quot;font-size: 8px;&quot;&gt;Web &lt;br&gt;&lt;/font&gt;&lt;/div&gt;&lt;div&gt;&lt;font data-font-src=&quot;https://fonts.googleapis.com/css?family=Delius&quot; face=&quot;Delius&quot; style=&quot;font-size: 8px;&quot;&gt;Server&lt;br&gt;&lt;/font&gt;&lt;/div&gt;" style="text;html=1;align=center;verticalAlign=middle;whiteSpace=wrap;rounded=0;" vertex="1" parent="1">
          <mxGeometry x="25.5" y="497" width="60" height="30" as="geometry" />
        </mxCell>
      </root>
    </mxGraphModel>
  </diagram>
</mxfile>
